<?xml version="1.0" encoding="UTF-8"?>
<svg version="1.1" xmlns="http://www.w3.org/2000/svg" width="1080" height="1350">
<path d="M0 0 C4.51763358 -0.06969483 9.03421734 -0.0606905 13.55224609 -0.04589844 C14.40010681 -0.04434753 15.24796753 -0.04279663 16.121521 -0.04119873 C56.19362795 0.04269778 96.21846223 1.08471436 136.23974609 3.07910156 C136.26258163 3.63683258 136.28541718 4.1945636 136.3089447 4.76919556 C136.54986371 10.64311216 136.79376853 16.51689971 137.03930664 22.390625 C137.13022153 24.57451336 137.22040815 26.75843217 137.30981445 28.94238281 C137.79035944 40.66875431 138.27758723 52.38038932 139.23974609 64.07910156 C140.27421875 62.84546875 140.27421875 62.84546875 141.32958984 61.58691406 C147.17596575 54.63367458 153.10720872 47.78305673 159.23974609 41.07910156 C160.10728516 40.11875 160.97482422 39.15839844 161.86865234 38.16894531 C167.7399949 31.70151704 173.78086968 25.41056448 179.92724609 19.20410156 C180.61560547 18.502771 181.30396484 17.80144043 182.01318359 17.07885742 C184.05230419 15.03609554 186.12868805 13.04732819 188.23974609 11.07910156 C188.94437988 10.40975586 189.64901367 9.74041016 190.375 9.05078125 C196.21255711 3.95670497 200.61488471 3.04413048 208.23974609 3.07910156 C209.47805176 3.05557617 210.71635742 3.03205078 211.9921875 3.0078125 C216.51253779 2.930615 221.03139474 2.93930026 225.55224609 2.95410156 C226.40010681 2.95565247 227.24796753 2.95720337 228.121521 2.95880127 C268.19362795 3.04269778 308.21846223 4.08471436 348.23974609 6.07910156 C349.0416679 13.23464558 349.4968644 20.36208987 349.77490234 27.55566406 C349.81787949 28.60692474 349.86085663 29.65818542 349.90513611 30.74130249 C350.04026795 34.06213074 350.17132543 37.3831049 350.30224609 40.70410156 C350.39377246 42.97103958 350.48556676 45.2379668 350.57763672 47.50488281 C350.8014363 53.02950136 351.0219011 58.55424518 351.23974609 64.07910156 C351.81909912 63.36842529 352.39845215 62.65774902 352.99536133 61.92553711 C357.38876348 56.54453769 361.78581847 51.17001516 366.30224609 45.89160156 C367.06347778 45.00190674 367.06347778 45.00190674 367.84008789 44.09423828 C371.22282205 40.17479198 374.73952893 36.46109996 378.45849609 32.85644531 C380.25602179 31.06286156 381.90451069 29.19802726 383.55224609 27.26660156 C390.39555408 19.32961421 397.99989528 11.56860331 406.23974609 5.07910156 C407.09396652 4.39745941 407.94818695 3.71581726 408.82829285 3.01351929 C412.92496034 0.69056023 416.19513493 0.52732252 420.7722168 0.59326172 C422.0320178 0.58763891 422.0320178 0.58763891 423.31726933 0.5819025 C426.10039343 0.57460948 428.8824933 0.59607608 431.66552734 0.61816406 C433.6331068 0.61983534 435.60068812 0.61995221 437.56826782 0.61860657 C442.81529422 0.62080107 448.06186027 0.64931971 453.30875778 0.68442917 C456.54545399 0.70406037 459.78208833 0.71619359 463.01882935 0.72561646 C491.07831285 0.80802497 519.11572823 1.07048984 547.14208984 2.54394531 C547.87932281 2.5825618 548.61655579 2.62117828 549.37612915 2.66096497 C553.71537175 2.91555929 557.94978678 3.41057736 562.23974609 4.07910156 C563.26523318 11.95619465 563.54542714 19.80464732 563.77490234 27.73925781 C563.81799987 29.13887994 563.86141652 30.53849226 563.90513611 31.93809509 C564.01844222 35.59246871 564.12745925 39.2469577 564.23553467 42.90148926 C564.34694089 46.64241455 564.46247057 50.38321235 564.57763672 54.12402344 C564.8023392 61.44226525 565.02250342 68.7606341 565.23974609 76.07910156 C565.8985376 75.14533691 566.5573291 74.21157227 567.23608398 73.24951172 C568.12389513 71.99730485 569.01184187 70.74519412 569.89990234 69.49316406 C570.33129517 68.88093994 570.76268799 68.26871582 571.20715332 67.63793945 C578.57096928 57.27455703 587.16938346 47.91692156 595.81298828 38.61914062 C597.29832746 37.01586897 598.77385317 35.40400713 600.24755859 33.79003906 C609.68695074 23.46560951 619.27477288 13.8152599 630.23974609 5.07910156 C630.56974609 4.74910156 630.89974609 4.41910156 631.23974609 4.07910156 C640.54579757 2.54707351 650.14971714 2.92430306 659.55224609 2.95410156 C660.39445709 2.95532013 661.23666809 2.9565387 662.10440063 2.95779419 C702.11129446 3.02411139 742.31266609 3.36336674 782.23974609 6.07910156 C783.19962502 9.35274778 783.4250092 12.40417966 783.53686523 15.80859375 C783.57681107 16.96738541 783.6167569 18.12617706 783.65791321 19.32008362 C783.71582283 21.20400063 783.71582283 21.20400063 783.77490234 23.12597656 C783.83963997 25.0866935 783.83963997 25.0866935 783.90568542 27.08702087 C784.02101405 30.60782111 784.12989531 34.12878899 784.23634338 37.64986801 C784.30219843 39.82752551 784.36910994 42.00514869 784.43615723 44.18276978 C786.18739851 101.40115035 786.18739851 101.40115035 783.77490234 120.07128906 C782.09805398 134.19746619 782.03286334 148.49786554 782.05224609 162.70410156 C782.05318268 163.61402863 782.05411926 164.52395569 782.05508423 165.4614563 C782.10963337 190.35279182 783.49530713 215.10062709 785.31659508 239.91997719 C785.84211873 247.09734049 786.35708401 254.27545379 786.86474609 261.45410156 C786.92193943 262.26278057 786.97913277 263.07145958 787.03805923 263.90464401 C788.63707 286.64690538 789.70789255 309.27508561 789.61474609 332.07910156 C789.61033508 333.22175476 789.60592407 334.36440796 789.60137939 335.54168701 C789.52399651 348.94552638 789.11781269 362.32875624 788.59230042 375.7217865 C787.12657255 413.24652028 789.51443775 450.68249151 792.1862793 488.10327148 C792.56395103 493.42697489 792.913633 498.75199344 793.23974609 504.07910156 C793.29067413 504.90299377 793.34160217 505.72688599 793.39407349 506.57574463 C794.74407584 529.58167204 794.52345009 552.66810371 794.55224609 575.70410156 C794.5542804 576.83239506 794.5563147 577.96068855 794.55841064 579.12317276 C794.60715816 608.14817905 794.2119268 637.03431969 792.38265991 666.00294495 C790.49469765 695.90696903 789.95469958 725.68455955 790.03640747 755.64840698 C790.05228529 761.7250932 790.04920367 767.80158793 790.03963375 773.87828159 C790.00657285 797.11645374 790.0877482 820.33516894 790.82113361 843.56238365 C791.16443362 854.48389134 791.39855473 865.40467719 791.56323528 876.33031654 C791.66936755 882.85343935 791.83593167 889.36194149 792.15567017 895.87835693 C794.26863912 939.89591236 794.26863912 939.89591236 779.81307507 955.91666222 C773.71487782 962.21273708 767.04599463 967.78322308 760.02305603 973.01242065 C755.83972005 976.21801103 752.60761683 980.05467321 749.23974609 984.07910156 C747.0967497 986.43475493 744.91796096 988.75602276 742.73974609 991.07910156 C738.79165493 995.31362615 734.85331139 999.54656591 731.07958984 1003.93847656 C729.62760484 1005.62783492 728.15758679 1007.30169376 726.68115234 1008.96972656 C720.68535626 1015.79161464 715.12639321 1022.82830836 709.73974609 1030.14160156 C703.69756855 1038.30907992 697.37018295 1045.85143148 690.23974609 1053.07910156 C689.63066406 1053.70187988 689.02158203 1054.3246582 688.39404297 1054.96630859 C676.95842308 1066.63945512 676.95842308 1066.63945512 671.34521484 1071.45800781 C665.92105247 1076.1443583 661.00428397 1081.33232146 656.03857422 1086.49511719 C645.85917857 1096.86773691 637.46552217 1100.76684169 623.23974609 1102.14160156 C622.50369141 1102.21958984 621.76763672 1102.29757812 621.00927734 1102.37792969 C607.97236914 1103.6990904 594.9477481 1104.23846029 581.84912109 1104.28222656 C580.42176284 1104.28916648 578.99440485 1104.29616154 577.56704712 1104.3032074 C573.0412767 1104.32231755 568.51555212 1104.3271214 563.98974609 1104.32910156 C562.83759991 1104.3302062 562.83759991 1104.3302062 561.66217804 1104.33133316 C524.74354285 1104.36019684 524.74354285 1104.36019684 506.61474609 1102.76660156 C505.92151245 1102.7077478 505.22827881 1102.64889404 504.51403809 1102.58825684 C484.67887645 1100.83040585 484.67887645 1100.83040585 478.73974609 1096.07910156 C474.07718799 1086.75398536 473.27172843 1076.10904555 472.05224609 1065.89160156 C471.87394421 1064.44815126 471.69491243 1063.00479092 471.51513672 1061.56152344 C471.08160736 1058.06837719 470.65789683 1054.57412618 470.23974609 1051.07910156 C469.71767578 1051.624375 469.19560547 1052.16964844 468.65771484 1052.73144531 C464.58048772 1056.90863947 460.44852061 1060.80521844 455.87646484 1064.43847656 C449.28698704 1069.72291408 443.48841475 1075.72363688 437.63842773 1081.796875 C420.22765524 1099.8186046 400.7264967 1100.77006917 376.55578327 1101.24973011 C367.07712316 1101.39912567 357.59803309 1101.40792693 348.1184082 1101.39477539 C344.50337244 1101.39015393 340.88867393 1101.3970426 337.27368164 1101.4152832 C275.29462558 1101.72465715 275.29462558 1101.72465715 260.23974609 1095.07910156 C257.03375737 1091.61128774 256.15363909 1087.76708602 255.11474609 1083.26660156 C254.86144531 1082.23696289 254.86144531 1082.23696289 254.60302734 1081.18652344 C253.12539559 1075.03748104 252.09031143 1068.98783174 252.17724609 1062.64160156 C252.18626953 1061.77664063 252.19529297 1060.91167969 252.20458984 1060.02050781 C252.22199219 1059.05951172 252.22199219 1059.05951172 252.23974609 1058.07910156 C251.82466797 1058.44519531 251.40958984 1058.81128906 250.98193359 1059.18847656 C250.36576172 1059.72988281 249.74958984 1060.27128906 249.11474609 1060.82910156 C248.38642578 1061.46976563 247.65810547 1062.11042969 246.90771484 1062.77050781 C244.94647125 1064.46757218 242.97354087 1066.13824121 240.97802734 1067.79394531 C234.51509378 1073.18738185 228.54264098 1078.6951574 222.94067383 1084.98217773 C207.62087048 1102.15146585 188.87533891 1102.55169214 167.09353638 1103.88879395 C155.27820912 1104.47225766 143.44044915 1104.42564357 131.6135788 1104.39675522 C129.33428165 1104.39153175 127.05499817 1104.3896056 124.7756958 1104.38809204 C107.36438798 1104.36797146 89.97312874 1104.27746768 72.61474609 1102.76660156 C71.92060608 1102.70783844 71.22646606 1102.64907532 70.5112915 1102.58853149 C48.79664413 1100.66349281 48.79664413 1100.66349281 43.23974609 1094.07910156 C42.07958984 1090.89160156 42.07958984 1090.89160156 41.17724609 1087.07910156 C41.01514648 1086.3971875 40.85304688 1085.71527344 40.68603516 1085.01269531 C38.66444391 1076.13199191 37.45951479 1067.0979974 36.23974609 1058.07910156 C35.61068359 1058.64757813 34.98162109 1059.21605469 34.33349609 1059.80175781 C30.28939695 1063.44997376 26.2431516 1067.08887013 22.11474609 1070.64160156 C17.15150278 1074.97188065 12.23930926 1079.4546749 8.23974609 1084.70410156 C0.46617114 1093.93522182 -9.54710539 1097.5437711 -21.19775391 1098.76660156 C-22.64698242 1098.9415918 -22.64698242 1098.9415918 -24.12548828 1099.12011719 C-42.28543529 1101.20868809 -60.45103766 1101.26702771 -78.70288086 1101.2644043 C-81.59649986 1101.26432357 -84.48995875 1101.27119454 -87.38354492 1101.28491211 C-152.02341667 1101.58654695 -152.02341667 1101.58654695 -166.76025391 1094.07910156 C-175.05198256 1083.04393677 -174.37157329 1064.26960322 -175.44775391 1050.95410156 C-175.50842041 1050.21514648 -175.56908691 1049.47619141 -175.6315918 1048.71484375 C-177.63161432 1023.8562419 -177.93002619 998.95610111 -177.96013927 974.03131104 C-177.96344599 971.56021796 -177.96824265 969.08913174 -177.97345734 966.61804199 C-177.99782673 954.88300051 -178.00648334 943.14798636 -178.00931931 931.41292191 C-178.01025493 928.57601105 -178.01192417 925.73910153 -178.01382446 922.90219116 C-178.05600701 857.45871204 -177.28107084 792.05343435 -175.88104963 726.62558556 C-175.82795375 724.14275438 -175.77516344 721.65991685 -175.72241592 719.17707825 C-175.57587107 712.29912767 -175.42788698 705.42125132 -175.26623797 698.54363716 C-174.53141724 667.1361687 -174.66481949 635.7638782 -175.31575584 604.35607719 C-175.47861167 596.48006333 -175.62592825 588.60374533 -175.77502191 580.72746122 C-175.8282073 577.91904156 -175.88166182 575.11062711 -175.9351244 572.30221272 C-177.25149151 502.96481391 -178.07428266 433.64169036 -178.07211304 364.29117584 C-178.07215715 359.51130727 -178.07549385 354.73144787 -178.07994622 349.9515816 C-178.21923901 197.14424895 -178.21923901 197.14424895 -151.47900391 154.46582031 C-149.75294756 151.70691022 -148.08290401 148.93025326 -146.47900391 146.09863281 C-135.812455 127.33407657 -119.83939806 110.98500773 -103.20654297 97.36816406 C-101.4829363 95.90105473 -101.4829363 95.90105473 -99.32275391 93.07910156 C-97.15496626 90.54120383 -95.75870848 89.34108776 -93.07275391 87.57910156 C-85.91510508 82.42613257 -81.40648899 74.05319654 -76.58056641 66.80566406 C-63.80518618 47.85317692 -47.29693844 31.57240302 -31.26025391 15.39160156 C-30.42357178 14.54186768 -29.58688965 13.69213379 -28.72485352 12.81665039 C-26.43957742 10.52816432 -24.12316878 8.28714972 -21.76025391 6.07910156 C-20.88820312 5.25998291 -20.88820312 5.25998291 -19.99853516 4.42431641 C-14.07779924 -0.48912091 -7.35910217 0.15480776 0 0 Z " fill="#E5E8F6" transform="translate(234.76025390625,121.9208984375)"/>
<path d="M0 0 C0.842211 0.00121857 1.684422 0.00243713 2.55215454 0.00369263 C42.55904836 0.07000983 82.76041999 0.40926518 122.6875 3.125 C123.64737893 6.39864622 123.87276311 9.4500781 123.98461914 12.85449219 C124.02456497 14.01328384 124.0645108 15.1720755 124.10566711 16.36598206 C124.16357674 18.24989906 124.16357674 18.24989906 124.22265625 20.171875 C124.28739388 22.13259193 124.28739388 22.13259193 124.35343933 24.13291931 C124.46876796 27.65371955 124.57764922 31.17468743 124.68409729 34.69576645 C124.74995234 36.87342395 124.81686385 39.05104713 124.88391113 41.22866821 C126.63515242 98.44704878 126.63515242 98.44704878 124.22265625 117.1171875 C122.54580789 131.24336463 122.48061724 145.54376398 122.5 159.75 C122.50093658 160.65992706 122.50187317 161.56985413 122.50283813 162.50735474 C122.55738727 187.39869026 123.94306104 212.14652553 125.76434898 236.96587563 C126.28987264 244.14323893 126.80483792 251.32135223 127.3125 258.5 C127.36969334 259.30867901 127.42688667 260.11735802 127.48581314 260.95054245 C129.08482391 283.69280381 130.15564646 306.32098405 130.0625 329.125 C130.05808899 330.2676532 130.05367798 331.4103064 130.0491333 332.58758545 C129.97175041 345.99142482 129.56556659 359.37465467 129.04005432 372.76768494 C127.57432646 410.29241872 129.96219166 447.72838995 132.6340332 485.14916992 C133.01170493 490.47287333 133.3613869 495.79789187 133.6875 501.125 C133.73842804 501.94889221 133.78935608 502.77278442 133.84182739 503.62164307 C135.19182975 526.62757047 134.97120399 549.71400215 135 572.75 C135.0020343 573.8782935 135.0040686 575.00658699 135.00616455 576.1690712 C135.05491206 605.19407749 134.65968071 634.08021813 132.83041382 663.04884338 C130.94245156 692.95286747 130.40245349 722.73045799 130.48416138 752.69430542 C130.5000392 758.77099163 130.49695758 764.84748637 130.48738766 770.92418003 C130.45432675 794.16235217 130.53550211 817.38106737 131.26888752 840.60828209 C131.61218752 851.52978978 131.84630863 862.45057563 132.01098919 873.37621498 C132.11712146 879.89933779 132.28368558 886.40783993 132.60342407 892.92425537 C134.71639303 936.9418108 134.71639303 936.9418108 120.26082897 952.96256065 C114.16263173 959.25863552 107.49374854 964.82912152 100.47080994 970.05831909 C96.28747395 973.26390947 93.05537074 977.10057165 89.6875 981.125 C87.54450361 983.48065336 85.36571487 985.80192119 83.1875 988.125 C79.23940884 992.35952459 75.3010653 996.59246435 71.52734375 1000.984375 C70.07535874 1002.67373335 68.60534069 1004.34759219 67.12890625 1006.015625 C61.13311016 1012.83751308 55.57414712 1019.8742068 50.1875 1027.1875 C44.14532246 1035.35497836 37.81793686 1042.89732991 30.6875 1050.125 C30.07841797 1050.74777832 29.46933594 1051.37055664 28.84179688 1052.01220703 C17.40617699 1063.68535356 17.40617699 1063.68535356 11.79296875 1068.50390625 C6.36880637 1073.19025674 1.45203788 1078.3782199 -3.51367188 1083.54101562 C-13.69306752 1093.91363535 -22.08672393 1097.81274013 -36.3125 1099.1875 C-37.04855469 1099.26548828 -37.78460937 1099.34347656 -38.54296875 1099.42382812 C-51.57987696 1100.74498884 -64.60449799 1101.28435873 -77.703125 1101.328125 C-79.13048325 1101.33506491 -80.55784124 1101.34205998 -81.98519897 1101.34910583 C-86.51096939 1101.36821599 -91.03669397 1101.37301984 -95.5625 1101.375 C-96.33059746 1101.37573643 -97.09869492 1101.37647285 -97.89006805 1101.3772316 C-134.80870324 1101.40609528 -134.80870324 1101.40609528 -152.9375 1099.8125 C-153.63073364 1099.75364624 -154.32396729 1099.69479248 -155.03820801 1099.63415527 C-174.87336964 1097.87630428 -174.87336964 1097.87630428 -180.8125 1093.125 C-187.03605048 1080.67789904 -187.4550642 1065.80514045 -187.97119141 1052.14086914 C-188.0026123 1051.33254639 -188.0340332 1050.52422363 -188.06640625 1049.69140625 C-188.10229858 1048.62321655 -188.10229858 1048.62321655 -188.13891602 1047.53344727 C-188.29176226 1044.97623429 -188.29176226 1044.97623429 -188.80394268 1041.87324238 C-189.6142771 1035.90079898 -189.69505273 1029.91203975 -189.86450195 1023.89331055 C-189.88541669 1023.18198326 -189.90633142 1022.47065596 -189.92787993 1021.7377733 C-190.47438038 1002.77192344 -190.477207 983.80332434 -190.47975707 964.83108354 C-190.48048228 961.77502347 -190.48264375 958.71896756 -190.48525429 955.66290855 C-190.4944609 944.83931582 -190.49859746 934.01573519 -190.49780273 923.19213867 C-190.49727645 914.45058319 -190.50417942 905.70907319 -190.51831055 896.9675293 C-190.59314114 849.65945138 -190.34700676 802.39813747 -189.10177827 755.10521775 C-188.25850763 722.98017065 -188.03098919 690.87910211 -188.1119048 658.74420208 C-188.12369719 653.83011125 -188.12763872 648.91605734 -188.12719727 644.00195312 C-188.12497361 615.73649173 -188.22223246 587.48054852 -188.82743835 559.22026443 C-190.20253629 494.91321043 -190.50178841 430.59666543 -190.49761117 366.27684164 C-190.49796457 358.27275719 -190.50968085 350.2687157 -190.5235464 342.26464486 C-190.53678474 334.32183706 -190.54198064 326.37904816 -190.54134732 318.43622947 C-190.54109913 313.78825722 -190.54356118 309.14033872 -190.55452538 304.49237823 C-190.59617517 285.5164053 -190.35261524 266.59492677 -189.41137695 247.63964844 C-189.37169245 246.82346432 -189.33200795 246.00728021 -189.29112089 245.16636324 C-187.56344165 210.48705566 -182.2368109 180.75817836 -162.50390625 151.47265625 C-160.98116451 149.19893664 -159.59566833 146.89403131 -158.27734375 144.49609375 C-152.4022858 133.87927305 -144.84883646 125.68620561 -136.3125 117.125 C-134.94855881 115.73632496 -133.58527694 114.34700203 -132.22265625 112.95703125 C-122.1982466 102.79430368 -122.1982466 102.79430368 -118.0703125 99.421875 C-115.82570246 97.55242641 -114.0548717 95.83042917 -112.25 93.5625 C-109.84985722 90.67728899 -107.41543359 88.27981499 -104.3125 86.125 C-103.6525 86.125 -102.9925 86.125 -102.3125 86.125 C-102.04566406 85.55652344 -101.77882813 84.98804688 -101.50390625 84.40234375 C-100.2491099 82.00383138 -98.82180424 79.89099862 -97.25 77.6875 C-95.21365707 74.82402396 -93.19850473 71.95540252 -91.23828125 69.0390625 C-83.11335415 56.99024781 -73.61890419 46.2924092 -63.73925781 35.66503906 C-62.25391863 34.06176741 -60.77839292 32.44990556 -59.3046875 30.8359375 C-49.86529535 20.51150794 -40.27747322 10.86115834 -29.3125 2.125 C-28.9825 1.795 -28.6525 1.465 -28.3125 1.125 C-19.00644853 -0.40702805 -9.40252895 -0.0297985 0 0 Z " fill="#FCD3AF" transform="translate(894.3125,124.875)"/>
<path d="M0 0 C1.259801 -0.00562281 1.259801 -0.00562281 2.54505253 -0.01135921 C5.32817663 -0.01865224 8.1102765 0.00281436 10.89331055 0.02490234 C12.86089 0.02657362 14.82847132 0.02669049 16.79605103 0.02534485 C22.04307743 0.02753935 27.28964347 0.05605799 32.53654099 0.09116745 C35.77323719 0.11079865 39.00987154 0.12293187 42.24661255 0.13235474 C70.30609605 0.21476325 98.34351143 0.47722812 126.36987305 1.95068359 C127.10710602 1.98930008 127.84433899 2.02791656 128.60391235 2.06770325 C132.94315496 2.32229757 137.17756999 2.81731565 141.4675293 3.48583984 C142.84851121 14.70776848 143.12429897 25.94375064 143.40777588 37.23944092 C143.47221093 39.66184334 143.54754908 42.08378529 143.62329102 44.50585938 C143.75858068 48.98086703 143.85047867 53.45534131 143.91842651 57.93185425 C143.95092948 59.70517478 143.99561531 61.47831757 144.05300903 63.25100708 C144.55050634 79.19328681 144.55050634 79.19328681 140.2487793 84.91162109 C138.32104492 86.89111328 138.32104492 86.89111328 136.4675293 88.48583984 C135.6012793 89.26056641 134.7350293 90.03529297 133.8425293 90.83349609 C133.0587793 91.39939453 132.2750293 91.96529297 131.4675293 92.54833984 C127.53642995 95.54120098 124.41604278 98.64332774 121.27807617 102.44238281 C119.55009355 104.39265446 117.77655429 106.03357922 115.7878418 107.71240234 C100.36008166 121.02703759 88.06090079 135.23485752 78.06518555 152.94677734 C76.10912295 156.40213549 74.04706165 159.74409878 71.8425293 163.04833984 C54.60448352 189.94134877 51.97729765 218.61391786 50.39990234 249.83251953 C50.33436852 251.12462821 50.33436852 251.12462821 50.26751077 252.4428401 C49.32469055 271.47346242 49.18687191 290.47626784 49.23180985 309.52644062 C49.24092463 314.25686229 49.23882627 318.98728373 49.2384491 323.7177124 C49.23937599 331.69447507 49.24790053 339.67119897 49.26171875 347.64794922 C49.27549971 355.62777473 49.28274481 363.60756476 49.28222656 371.58740234 C49.27856414 435.94801389 49.64028327 500.30247551 51.01831055 564.64990234 C51.61590508 592.59690881 51.65515148 620.54329696 51.65264046 648.49529481 C51.65294048 653.38897742 51.6610176 658.28260345 51.67333984 663.17626953 C51.75288206 695.50760411 51.45932582 727.80137558 50.6083107 760.12234306 C49.35828088 807.60373221 49.19015445 855.0585597 49.2669341 902.55459261 C49.28043121 911.32554925 49.28262721 920.0964811 49.2819832 928.86744672 C49.28130147 939.62217362 49.28824292 950.37688623 49.2974298 961.13160872 C49.29952026 964.1349943 49.30026503 967.13837746 49.30066872 970.14176369 C49.30558355 988.85122507 49.36562763 1007.55160768 49.91552734 1026.25415039 C49.93487953 1026.94152774 49.95423171 1027.6289051 49.97417033 1028.33711207 C50.16222378 1034.80917248 50.52063747 1041.07654002 51.4675293 1047.48583984 C51.53005422 1049.46412834 51.55446294 1051.44421435 51.5300293 1053.42333984 C51.52100586 1054.38111328 51.51198242 1055.33888672 51.50268555 1056.32568359 C51.4852832 1057.39496094 51.4852832 1057.39496094 51.4675293 1058.48583984 C51.1375293 1058.48583984 50.8075293 1058.48583984 50.4675293 1058.48583984 C50.1375293 1055.84583984 49.8075293 1053.20583984 49.4675293 1050.48583984 C48.94545898 1051.03111328 48.42338867 1051.57638672 47.88549805 1052.13818359 C46.78141602 1053.26933594 46.78141602 1053.26933594 45.6550293 1054.42333984 C44.59348633 1055.5196875 44.59348633 1055.5196875 43.51049805 1056.63818359 C40.93703922 1059.1537643 38.15525365 1061.35666212 35.3425293 1063.59912109 C28.69141539 1068.98803688 22.79547384 1075.0480739 16.86621094 1081.20361328 C-0.54456156 1099.22534288 -20.0457201 1100.17680745 -44.21643353 1100.65646839 C-53.69509364 1100.80586395 -63.1741837 1100.81466521 -72.65380859 1100.80151367 C-76.26884435 1100.79689221 -79.88354287 1100.80378089 -83.49853516 1100.82202148 C-145.47759122 1101.13139543 -145.47759122 1101.13139543 -160.5324707 1094.48583984 C-169.14267196 1085.00985734 -168.48632577 1066.64913333 -169.31030273 1054.6015625 C-169.5313667 1051.50132251 -169.79037322 1048.40644022 -170.05981445 1045.31005859 C-171.0803135 1033.29970125 -171.75011868 1021.28854897 -172.08325195 1009.23974609 C-172.11489 1008.10695378 -172.11489 1008.10695378 -172.14716721 1006.95127678 C-172.85240667 980.55479798 -172.6824251 954.13748489 -172.66104001 927.73360825 C-172.65726896 922.53699852 -172.6586286 917.34040786 -172.6628418 912.14379883 C-172.68639044 882.35064223 -172.67049174 852.5772584 -171.71487617 822.79612923 C-171.45912708 814.57065132 -171.35328321 806.34332989 -171.2512207 798.11474609 C-171.24166225 797.36365885 -171.23210381 796.6125716 -171.22225571 795.83872414 C-171.1459297 789.8178465 -171.07546276 783.79690482 -171.00640869 777.77593994 C-170.94566241 772.49299543 -170.88171617 767.21010241 -170.8137207 761.92724609 C-170.8042724 761.18000023 -170.7948241 760.43275436 -170.78508949 759.66286469 C-170.67354948 751.09516177 -170.48476657 742.53925277 -170.14997864 733.9768219 C-169.15157088 708.22999691 -169.33576766 682.4593343 -169.3444953 656.69741774 C-169.34497293 654.60107484 -169.34481877 652.50473295 -169.34444046 650.40839005 C-169.3370082 608.15488098 -169.67275026 565.92028644 -170.4699707 523.67333984 C-170.49178532 522.51708351 -170.51359993 521.36082718 -170.53607559 520.16953278 C-171.08624913 491.17362248 -171.08624913 491.17362248 -171.81762695 462.18188477 C-172.69974511 430.55445224 -172.68600491 398.93062251 -172.66104013 367.2937178 C-172.65725325 361.93628402 -172.65864484 356.57886867 -172.6628418 351.22143555 C-172.72481334 269.75611889 -172.72481334 269.75611889 -170.28515625 239.76489258 C-170.08956202 237.35674844 -169.90695134 234.94784681 -169.72583008 232.53857422 C-167.44234076 202.80418797 -167.44234076 202.80418797 -164.5324707 192.67333984 C-164.32589844 191.94598633 -164.11932617 191.21863281 -163.90649414 190.46923828 C-159.7837109 176.96554632 -152.5704186 164.52971992 -144.74731445 152.85693359 C-142.75011136 149.87215104 -140.94943002 146.79861986 -139.15917969 143.68652344 C-134.994048 136.47538537 -130.33299473 130.50199673 -124.5324707 124.48583984 C-123.44191207 123.22120142 -122.35828822 121.95054192 -121.2824707 120.67333984 C-114.18986202 112.53915925 -106.39318226 104.9284417 -98.1574707 97.96240234 C-96.27623787 96.32621935 -96.27623787 96.32621935 -94.0324707 93.42333984 C-91.89751879 90.91477135 -90.50082664 89.72990492 -87.8449707 87.98583984 C-81.3983615 83.40923942 -76.04525603 75.51141049 -72.5324707 68.48583984 C-72.37868218 66.52809915 -72.28275607 64.56566632 -72.21606445 62.60302734 C-72.17416992 61.43642578 -72.13227539 60.26982422 -72.08911133 59.06787109 C-72.04979492 57.84455078 -72.01047852 56.62123047 -71.9699707 55.36083984 C-71.90519531 53.51425781 -71.90519531 53.51425781 -71.83911133 51.63037109 C-71.73278366 48.58231131 -71.6307529 45.53416795 -71.5324707 42.48583984 C-71.2024707 42.48583984 -70.8724707 42.48583984 -70.5324707 42.48583984 C-70.0374707 52.88083984 -70.0374707 52.88083984 -69.5324707 63.48583984 C-67.6762207 61.19646484 -67.6762207 61.19646484 -65.7824707 58.86083984 C-50.45553497 40.15473717 -50.45553497 40.15473717 -42.3137207 32.26318359 C-40.51619501 30.46959984 -38.86770611 28.60476554 -37.2199707 26.67333984 C-30.37666271 18.7363525 -22.77232152 10.97534159 -14.5324707 4.48583984 C-13.67825027 3.80419769 -12.82402985 3.12255554 -11.94392395 2.42025757 C-7.84725646 0.09729851 -4.57708187 -0.0659392 0 0 Z " fill="#A7D6CE" transform="translate(655.532470703125,122.51416015625)"/>
<path d="M0 0 C1.27162601 10.89708778 1.40433494 21.77846945 1.51489258 32.73925781 C1.54658745 35.15977071 1.59439756 37.5801271 1.65844727 40 C2.29223873 64.35877363 2.29223873 64.35877363 -4.92797852 72.88378906 C-5.61174561 73.58213867 -6.2955127 74.28048828 -7 75 C-8.1736086 76.45275259 -9.34154255 77.91013702 -10.5 79.375 C-13.38502513 82.56164139 -16.54689692 84.967239 -20.0390625 87.44921875 C-22.78397992 89.62000005 -24.86248582 92.20026586 -27.1015625 94.875 C-29.93549578 98.04713931 -33.13106516 100.76610394 -36.31640625 103.578125 C-41.0680586 107.86637021 -45.54828315 112.40356789 -50 117 C-50.62648438 117.64324219 -51.25296875 118.28648437 -51.8984375 118.94921875 C-60.55368706 128.31558036 -67.0083678 139.72176343 -73.19921875 150.80078125 C-74.76184142 153.57689397 -76.38759961 156.29099224 -78.0625 159 C-89.03491405 177.366867 -93.43456568 194.91147449 -95.25 216.0625 C-95.41003115 217.76380673 -95.57148736 219.46498001 -95.734375 221.16601562 C-96.73113836 231.76243776 -97.53684122 242.36639852 -98 253 C-98.04448273 253.99533752 -98.08896545 254.99067505 -98.13479614 256.01617432 C-99.44339717 287.04774088 -99.19768678 318.12428159 -99.18797541 349.17702866 C-99.18749752 351.44928772 -99.18765202 353.72154586 -99.18803024 355.99380493 C-99.19600408 405.10876848 -98.67484836 454.18739321 -97.4689579 503.28923607 C-96.35746858 548.64898191 -95.83207356 593.98998678 -95.87143058 639.36167455 C-95.87579584 644.98251721 -95.87264675 650.60333762 -95.8678025 656.22417891 C-95.86263753 662.48245762 -95.86328223 668.74072465 -95.86618423 674.99900436 C-95.86683672 677.58583964 -95.86608628 680.17267578 -95.86370468 682.75951004 C-95.85184332 699.19998156 -96.18666648 715.60234794 -96.76419067 732.03057861 C-97.04845614 740.16775744 -97.19594875 748.29985138 -97.28125 756.44140625 C-97.29950242 757.92032796 -97.31811029 759.39924532 -97.33703613 760.87815857 C-97.39473581 765.43956835 -97.44768474 770.00102576 -97.5 774.5625 C-97.56948608 780.58468076 -97.64211193 786.60681218 -97.71875 792.62890625 C-97.72817753 793.38898169 -97.73760506 794.14905712 -97.74731827 794.93216515 C-97.85069398 803.09101307 -97.98782033 811.24617174 -98.24951172 819.40161133 C-99.19859494 849.22464305 -99.15275762 879.04615364 -99.12856889 908.88082105 C-99.12479561 914.07802465 -99.12616204 919.2752092 -99.13037109 924.47241211 C-99.21932532 964.08388147 -99.21932532 964.08388147 -98.55859375 1003.6875 C-98.53944538 1004.39482836 -98.52029701 1005.10215672 -98.50056839 1005.83091927 C-98.16958844 1017.52010043 -97.39530631 1029.15822793 -96.40234375 1040.80859375 C-95.56579997 1051.41477387 -95.56579997 1051.41477387 -97.2578125 1053.6953125 C-97.87398437 1054.16710938 -98.49015625 1054.63890625 -99.125 1055.125 C-99.85332031 1055.71152344 -100.58164062 1056.29804687 -101.33203125 1056.90234375 C-102.21246094 1057.59457031 -103.09289062 1058.28679687 -104 1059 C-106.28962385 1060.87384462 -108.55497651 1062.77514392 -110.8125 1064.6875 C-111.71585083 1065.45175293 -111.71585083 1065.45175293 -112.63745117 1066.23144531 C-117.21324152 1070.16947991 -121.28723334 1074.40063762 -125.29907227 1078.90307617 C-140.61887562 1096.07236429 -159.36440719 1096.47259057 -181.14620972 1097.80969238 C-192.96153697 1098.39315609 -204.79929695 1098.34654201 -216.6261673 1098.31765366 C-218.90546445 1098.31243018 -221.18474792 1098.31050404 -223.46405029 1098.30899048 C-240.87535812 1098.2888699 -258.26661735 1098.19836611 -275.625 1096.6875 C-276.31914001 1096.62873688 -277.01328003 1096.56997375 -277.72845459 1096.50942993 C-299.46074524 1094.58282715 -299.46074524 1094.58282715 -305 1088 C-305.885713 1085.53389713 -306.5534678 1083.28462104 -307.125 1080.75 C-307.43695313 1079.48671875 -307.74890625 1078.2234375 -308.0703125 1076.921875 C-311.21422147 1061.43403924 -311.85267547 1045.55520449 -312.625 1029.8125 C-312.67405739 1028.81927483 -312.67405739 1028.81927483 -312.72410583 1027.8059845 C-316.00243634 960.58595113 -314.3267486 893.02111556 -313.5625 825.75 C-313.55277664 824.88026047 -313.54305328 824.01052094 -313.53303528 823.11442566 C-313.34422163 806.38900319 -313.10449928 789.67843539 -312.36782837 772.96641541 C-311.82917163 760.58640042 -311.6233257 748.2021557 -311.4375 735.8125 C-311.42715981 735.14047546 -311.41681961 734.46845093 -311.40616608 733.77606201 C-310.94624276 703.73523343 -310.89037564 673.69291329 -310.87706375 643.64904404 C-310.87502474 640.04374714 -310.87127281 636.43845547 -310.86715698 632.8331604 C-310.84293199 608.51152512 -310.93095556 584.21816047 -311.74609375 559.90917969 C-312.14593743 547.97072773 -312.3262723 536.02846629 -312.50268555 524.08496094 C-312.56117395 520.21278986 -312.62706738 516.34079422 -312.69335938 512.46875 C-313.14221005 482.97284823 -313 453.51083998 -313 424 C-252.94 424 -192.88 424 -131 424 C-131 409.15 -131 394.3 -131 379 C-191.39 379 -251.78 379 -314 379 C-314 366.13 -314 353.26 -314 340 C-253.61 340 -193.22 340 -131 340 C-131 327.13 -131 314.26 -131 301 C-191.06 301 -251.12 301 -313 301 C-313 193.46575342 -313 193.46575342 -301 181 C-277.27810627 171.34124848 -244.26671272 174.78771248 -219.1875 174.8125 C-218.139039 174.81277191 -217.090578 174.81304382 -216.01034546 174.81332397 C-202.09431677 174.82977738 -188.2088353 175.05247609 -174.3125 175.8125 C-173.61982025 175.84743561 -172.9271405 175.88237122 -172.21347046 175.91836548 C-163.92251988 176.35308902 -156.08446579 177.4265917 -148.01245117 179.38549805 C-145.19285044 179.96066095 -142.86009829 180.29077357 -140 180 C-138.04382447 178.2230633 -136.5531164 176.6158097 -134.9375 174.5625 C-134.23185913 173.6960083 -134.23185913 173.6960083 -133.51196289 172.81201172 C-125.69927421 163.0657953 -118.73957362 152.67428341 -111.875 142.25 C-105.32614069 132.31442996 -97.95218587 123.09972329 -90.39453125 113.9140625 C-80.51977611 101.89682379 -71.14005936 89.58517835 -62 77 C-61.44135254 76.23220215 -60.88270508 75.4644043 -60.30712891 74.67333984 C-54.97599793 67.34127337 -49.68017183 59.98738574 -44.48486328 52.55834961 C-7.6873633 0 -7.6873633 0 0 0 Z " fill="#EDA193" transform="translate(583,128)"/>
<path d="M0 0 C1.85310791 0.00040787 1.85310791 0.00040787 3.74365234 0.00082397 C66.16006979 0.06401281 66.16006979 0.06401281 79.6875 7.1875 C80.76171875 9.03515625 80.76171875 9.03515625 81.375 11.25 C81.58511719 11.96285156 81.79523438 12.67570312 82.01171875 13.41015625 C82.23472656 14.32667969 82.45773438 15.24320312 82.6875 16.1875 C82.84418152 16.80750381 83.00086304 17.42750763 83.16229248 18.06629944 C84.55362387 23.86607607 85.15934602 29.51497012 85.50390625 35.4609375 C85.56529282 36.42415924 85.62667938 37.38738098 85.68992615 38.37979126 C85.88325844 41.44032191 86.06669929 44.50135399 86.25 47.5625 C86.37632333 49.57686251 86.50327179 51.59118592 86.63085938 53.60546875 C86.92867726 58.36084062 87.226289 63.11611182 87.49604797 67.87316895 C87.63659656 70.30628257 87.78844347 72.73875039 87.94670105 75.17077637 C88.83027525 89.37670334 88.85024542 103.56766448 88.85546875 117.796875 C88.85844788 119.80440093 88.86143133 121.81192687 88.86473483 123.81945229 C88.87852872 132.4444703 88.87861534 141.06946425 88.87559986 149.69449043 C88.8749981 151.9445968 88.87494988 154.19470252 88.87508392 156.44480896 C88.87722889 204.47589864 88.34721433 252.4666023 87.12284851 300.48352051 C86.55581941 322.8200919 86.12316205 345.15927876 85.69622803 367.49890137 C85.60924053 372.03972214 85.51998548 376.58048783 85.42828369 381.12121582 C84.42534636 430.79114781 84.96266574 480.37023837 85.76037598 530.03747559 C85.89239072 538.26366522 86.02281762 546.4898753 86.14943409 554.71614999 C86.20354965 558.2234955 86.25875246 561.73081469 86.31710815 565.23809242 C86.68068217 587.22689452 86.6875 609.19024893 86.6875 631.1875 C27.6175 631.1875 -31.4525 631.1875 -92.3125 631.1875 C-92.3125 541.1875 -92.3125 541.1875 -91.53125 507.10546875 C-91.32210778 497.29361405 -91.25982315 487.48339514 -91.2578125 477.66967773 C-91.25758182 476.89382993 -91.25735113 476.11798213 -91.25711346 475.31862378 C-91.25993276 459.02932487 -91.53039552 442.74977532 -91.86800194 426.46447563 C-92.03085776 418.58846177 -92.17817435 410.71214377 -92.327268 402.83585966 C-92.3804534 400.02744 -92.43390792 397.21902554 -92.48737049 394.41061115 C-93.8037376 325.07321235 -94.62652875 255.7500888 -94.62435913 186.39957428 C-94.62440324 181.61970581 -94.6277399 176.8398465 -94.63219237 172.05998033 C-94.76468583 26.70829474 -94.76468583 26.70829474 -83.62109375 8.41015625 C-77.92166504 2.92288902 -68.54170576 3.38991877 -61.0625 2.625 C-59.9178125 2.49931641 -58.773125 2.37363281 -57.59375 2.24414062 C-38.41536362 0.2270306 -19.26970387 -0.01592298 0 0 Z " fill="#CBD5EE" transform="translate(151.3125,299.8125)"/>
<path d="M0 0 C59.73 0 119.46 0 181 0 C181 48.04114377 181 48.04114377 180.3836422 71.64867401 C180.20426527 78.61728839 180.04698979 85.58643359 179.88715637 92.55551839 C179.83068409 95.01649705 179.77383325 97.47746678 179.7169733 99.93843651 C178.47836969 153.74899787 177.60041336 207.49170349 178.6875 261.3125 C178.71197708 262.52716068 178.73645416 263.74182137 178.76167297 264.99328995 C179.03224746 278.23598194 179.33811896 291.47772059 179.66064453 304.71923828 C180.16362051 325.38666634 180.55107788 346.0563431 180.92868328 366.72638798 C181.03243676 372.38166794 181.13962699 378.03681669 181.25839233 383.69180298 C182.12179573 424.80915222 182 465.85380893 182 507 C121.94 507 61.88 507 0 507 C-0.0309375 472.6284375 -0.0309375 472.6284375 -0.0625 437.5625 C-0.071604 430.37670166 -0.08070801 423.19090332 -0.09008789 415.78735352 C-0.09460449 406.88659668 -0.09460449 406.88659668 -0.09544373 402.69541931 C-0.09636047 399.82150979 -0.10004665 396.94761949 -0.10557556 394.07371521 C-0.13724694 376.8518224 0.07891736 359.6817022 0.88952446 342.47466469 C1.12313714 337.2417141 1.22769047 332.00659392 1.31640625 326.76953125 C1.33727798 325.6170842 1.35814972 324.46463715 1.37965393 323.27726746 C1.44572726 319.45574155 1.5051809 315.63416691 1.5625 311.8125 C1.57284019 311.14047546 1.58318039 310.46845093 1.59383392 309.77606201 C2.05375724 279.73523343 2.10962436 249.69291329 2.12293625 219.64904404 C2.12497526 216.04374714 2.12872719 212.43845547 2.13284302 208.8331604 C2.15706801 184.51152512 2.06904444 160.21816047 1.25390625 135.90917969 C0.85406257 123.97072773 0.6737277 112.02846629 0.49731445 100.08496094 C0.43882605 96.21278986 0.37293262 92.34079422 0.30664062 88.46875 C-0.14221005 58.97284823 0 29.51083998 0 0 Z " fill="#EC8876" transform="translate(270,552)"/>
<path d="M0 0 C60.06 0 120.12 0 182 0 C182 32.64880146 182 32.64880146 181.8515625 45.5625 C181.8433378 46.31073406 181.83511311 47.05896812 181.82663918 47.82987595 C181.77307734 52.70095446 181.71563499 57.57197726 181.65604782 62.44298553 C181.62426475 65.0605535 181.59358592 67.67813291 181.5630188 70.29571533 C181.34622886 88.62605765 181.08967962 106.9512069 180.48828125 125.2734375 C180.44262319 126.68065228 180.39701495 128.08786868 180.35145569 129.49508667 C180.32874446 130.19551905 180.30603323 130.89595142 180.28263378 131.61760902 C178.96905214 172.17862424 178.80574865 212.72041505 178.8123498 253.29895115 C178.81249909 255.61096038 178.81202858 257.9229686 178.81132126 260.23497772 C178.74673521 304.38604655 178.74673521 304.38604655 179.75268555 348.52197266 C180.05276641 356.94819846 180.1756571 365.37421655 180.28125 373.8046875 C180.29066872 374.54495619 180.30008743 375.28522488 180.30979156 376.04792595 C180.35699175 379.79125784 180.40211567 383.5346105 180.4458313 387.27798462 C180.53807928 395.16589217 180.64020373 403.05367099 180.74609375 410.94140625 C180.75633009 411.70639372 180.76656643 412.47138119 180.77711296 413.25955009 C180.91238645 423.23139941 181.08829258 433.20001166 181.41430664 443.16772461 C182.09548676 464.51772762 182 485.54289474 182 507 C121.94 507 61.88 507 0 507 C0 424.55001859 0 424.55001859 0.85531616 398.37738037 C2.10856156 359.53357304 2.19960877 320.68431456 2.18847656 281.82482529 C2.18745199 278.16732883 2.18803089 274.50983485 2.18911904 270.85233849 C2.19828383 236.81321123 1.93393762 202.79225806 1.18480873 168.76010704 C0.86253073 153.96259711 0.67536884 139.16311956 0.49731445 124.36328125 C0.45863042 121.16401544 0.41697275 117.96481292 0.37231445 114.765625 C-0.15490584 76.5078551 0 38.26688826 0 0 Z " fill="#F9C28E" transform="translate(704,500)"/>
<path d="M0 0 C1.259801 -0.00562281 1.259801 -0.00562281 2.54505253 -0.01135921 C5.32817663 -0.01865224 8.1102765 0.00281436 10.89331055 0.02490234 C12.86089 0.02657362 14.82847132 0.02669049 16.79605103 0.02534485 C22.04307743 0.02753935 27.28964347 0.05605799 32.53654099 0.09116745 C35.77323719 0.11079865 39.00987154 0.12293187 42.24661255 0.13235474 C70.30609605 0.21476325 98.34351143 0.47722812 126.36987305 1.95068359 C127.10710602 1.98930008 127.84433899 2.02791656 128.60391235 2.06770325 C132.94315496 2.32229757 137.17756999 2.81731565 141.4675293 3.48583984 C142.84851121 14.70776848 143.12429897 25.94375064 143.40777588 37.23944092 C143.47221093 39.66184334 143.54754908 42.08378529 143.62329102 44.50585938 C143.75858068 48.98086703 143.85047867 53.45534131 143.91842651 57.93185425 C143.95092948 59.70517478 143.99561531 61.47831757 144.05300903 63.25100708 C144.55050634 79.19328681 144.55050634 79.19328681 140.2487793 84.91162109 C138.32104492 86.89111328 138.32104492 86.89111328 136.4675293 88.48583984 C135.6012793 89.26056641 134.7350293 90.03529297 133.8425293 90.83349609 C133.0587793 91.39939453 132.2750293 91.96529297 131.4675293 92.54833984 C127.53642995 95.54120098 124.41604278 98.64332774 121.27807617 102.44238281 C119.55009355 104.39265446 117.77655429 106.03357922 115.7878418 107.71240234 C100.36008166 121.02703759 88.06090079 135.23485752 78.06518555 152.94677734 C76.10912295 156.40213549 74.04706165 159.74409878 71.8425293 163.04833984 C54.60448352 189.94134877 51.97729765 218.61391786 50.39990234 249.83251953 C50.33436852 251.12462821 50.33436852 251.12462821 50.26751077 252.4428401 C49.32469055 271.47346242 49.18687191 290.47626784 49.23180985 309.52644062 C49.24092463 314.25686229 49.23882627 318.98728373 49.2384491 323.7177124 C49.23937599 331.69447507 49.24790053 339.67119897 49.26171875 347.64794922 C49.27549971 355.62777473 49.28274481 363.60756476 49.28222656 371.58740234 C49.27856414 435.94801389 49.64028327 500.30247551 51.01831055 564.64990234 C51.61590508 592.59690881 51.65515148 620.54329696 51.65264046 648.49529481 C51.65294048 653.38897742 51.6610176 658.28260345 51.67333984 663.17626953 C51.75288206 695.50760411 51.45932582 727.80137558 50.6083107 760.12234306 C49.35828088 807.60373221 49.19015445 855.0585597 49.2669341 902.55459261 C49.28043121 911.32554925 49.28262721 920.0964811 49.2819832 928.86744672 C49.28130147 939.62217362 49.28824292 950.37688623 49.2974298 961.13160872 C49.29952026 964.1349943 49.30026503 967.13837746 49.30066872 970.14176369 C49.30558355 988.85122507 49.36562763 1007.55160768 49.91552734 1026.25415039 C49.93487953 1026.94152774 49.95423171 1027.6289051 49.97417033 1028.33711207 C50.16222378 1034.80917248 50.52063747 1041.07654002 51.4675293 1047.48583984 C51.53005422 1049.46412834 51.55446294 1051.44421435 51.5300293 1053.42333984 C51.52100586 1054.38111328 51.51198242 1055.33888672 51.50268555 1056.32568359 C51.4852832 1057.39496094 51.4852832 1057.39496094 51.4675293 1058.48583984 C51.1375293 1058.48583984 50.8075293 1058.48583984 50.4675293 1058.48583984 C50.1375293 1055.84583984 49.8075293 1053.20583984 49.4675293 1050.48583984 C48.94545898 1051.03111328 48.42338867 1051.57638672 47.88549805 1052.13818359 C46.78141602 1053.26933594 46.78141602 1053.26933594 45.6550293 1054.42333984 C44.59348633 1055.5196875 44.59348633 1055.5196875 43.51049805 1056.63818359 C40.93957865 1059.15130312 38.16065082 1061.35148703 35.3503418 1063.59130859 C28.63505366 1069.03179193 22.70078144 1075.14472799 16.71533203 1081.35449219 C15.30993067 1082.80835566 13.89469171 1084.25268897 12.47924805 1085.69677734 C11.65900146 1086.54546387 10.83875488 1087.39415039 9.99365234 1088.26855469 C7.31340645 1090.62111999 4.7120598 1092.03589882 1.4675293 1093.48583984 C1.61391846 1092.91373779 1.76030762 1092.34163574 1.91113281 1091.75219727 C13.2571309 1045.53679566 9.67355576 994.21032792 9.65641022 946.99332428 C9.65500618 943.10937961 9.65511471 939.22543659 9.6552124 935.3414917 C9.64426509 876.35410485 8.70227994 817.38860619 7.61328125 758.41174316 C7.46512722 750.3775682 7.32026782 742.34333668 7.17651367 734.30908203 C7.16456569 733.64163239 7.15261771 732.97418275 7.14030766 732.28650737 C7.00934371 724.96796341 6.87905816 717.64940756 6.74935913 710.33084106 C6.70343159 707.74041746 6.65750264 705.14999387 6.61157227 702.55957031 C6.58916159 701.29414713 6.56675091 700.02872395 6.54366112 698.72495461 C6.41354133 691.40108364 6.27971159 684.07729382 6.14224243 676.75355721 C6.05760857 672.22448807 5.97518529 667.69538018 5.89313507 663.16626358 C5.85545138 661.11467756 5.81682051 659.06310861 5.77703094 657.01156235 C5.21016144 627.73549178 5.53029972 598.51274503 6.20819283 569.24380493 C6.4214729 560.02131904 6.62029181 550.79851264 6.82062733 541.57573819 C6.89160043 538.30985876 6.96285361 535.04398551 7.0341177 531.77811241 C8.51652547 463.70075314 9.88897459 395.62749669 9.90231001 327.53160757 C9.90321579 323.00618078 9.90833064 318.48079183 9.91779578 313.9553749 C9.9741884 286.72787413 9.94273956 259.52867697 8.12768555 232.34912109 C8.06955626 231.46696615 8.01142696 230.58481121 7.95153618 229.6759243 C7.29856811 220.11731036 6.32316847 210.61576318 5.05126953 201.11938477 C4.88417654 199.80711521 4.88417654 199.80711521 4.71370792 198.46833515 C4.02563235 193.62498011 3.06918787 189.72924171 0.4675293 185.48583984 C-2.16893286 183.66612058 -4.70024648 183.13505908 -7.84106445 182.66943359 C-8.67186523 182.54503906 -9.50266602 182.42064453 -10.35864258 182.29248047 C-11.22038086 182.17066406 -12.08211914 182.04884766 -12.9699707 181.92333984 C-13.7969043 181.79765625 -14.62383789 181.67197266 -15.47583008 181.54248047 C-28.67152698 179.6141116 -41.8157588 179.31215602 -55.12231445 179.28271484 C-56.43836764 179.27847378 -56.43836764 179.27847378 -57.78100777 179.27414703 C-62.43864352 179.25923989 -67.09624906 179.2499611 -71.75390625 179.24560547 C-75.53427953 179.24125159 -79.31442062 179.22746837 -83.09472656 179.20458984 C-101.33000964 179.09657848 -119.49705877 179.02810972 -137.66137695 180.81396484 C-138.85117661 180.93068542 -140.04097626 181.04740601 -141.26683044 181.16766357 C-148.38701664 181.9733871 -155.08238432 183.26079665 -161.5324707 186.48583984 C-160.94714263 182.90184318 -159.99543718 180.07167763 -158.30981445 176.86083984 C-157.85791748 175.99612061 -157.40602051 175.13140137 -156.94042969 174.24047852 C-156.45517822 173.33144775 -155.96992676 172.42241699 -155.4699707 171.48583984 C-154.97118408 170.54393799 -154.47239746 169.60203613 -153.95849609 168.6315918 C-150.08892481 161.38787868 -145.94226012 154.41429745 -141.5324707 147.48583984 C-140.70665855 146.12170308 -139.88391748 144.755704 -139.0637207 143.38818359 C-131.39307467 130.68159168 -131.39307467 130.68159168 -126.15356445 125.96240234 C-124.40488618 124.36963033 -122.93014197 122.67017538 -121.4074707 120.86083984 C-114.30509982 112.63619817 -106.44999856 104.97649883 -98.1574707 97.96240234 C-96.27623787 96.32621935 -96.27623787 96.32621935 -94.0324707 93.42333984 C-91.89751879 90.91477135 -90.50082664 89.72990492 -87.8449707 87.98583984 C-81.3983615 83.40923942 -76.04525603 75.51141049 -72.5324707 68.48583984 C-72.37868218 66.52809915 -72.28275607 64.56566632 -72.21606445 62.60302734 C-72.17416992 61.43642578 -72.13227539 60.26982422 -72.08911133 59.06787109 C-72.04979492 57.84455078 -72.01047852 56.62123047 -71.9699707 55.36083984 C-71.90519531 53.51425781 -71.90519531 53.51425781 -71.83911133 51.63037109 C-71.73278366 48.58231131 -71.6307529 45.53416795 -71.5324707 42.48583984 C-71.2024707 42.48583984 -70.8724707 42.48583984 -70.5324707 42.48583984 C-70.0374707 52.88083984 -70.0374707 52.88083984 -69.5324707 63.48583984 C-67.6762207 61.19646484 -67.6762207 61.19646484 -65.7824707 58.86083984 C-50.45553497 40.15473717 -50.45553497 40.15473717 -42.3137207 32.26318359 C-40.51619501 30.46959984 -38.86770611 28.60476554 -37.2199707 26.67333984 C-30.37666271 18.7363525 -22.77232152 10.97534159 -14.5324707 4.48583984 C-13.67825027 3.80419769 -12.82402985 3.12255554 -11.94392395 2.42025757 C-7.84725646 0.09729851 -4.57708187 -0.0659392 0 0 Z " fill="#A8D6CE" transform="translate(655.532470703125,122.51416015625)"/>
<path d="M0 0 C3.74058349 0.01349417 7.48104681 0.00824055 11.22164345 0.00287151 C14.89910628 -0.00050795 18.57649884 0.00623273 22.25394821 0.01600075 C23.97347011 0.01977228 25.69299991 0.02103567 27.41252518 0.0194149 C39.77206991 0.01746206 51.89263875 0.88630616 64.16662598 2.3225708 C64.86220737 2.40247442 65.55778877 2.48237804 66.27444839 2.56470299 C78.59243922 3.99563739 78.59243922 3.99563739 83.16662598 8.3225708 C85.52645727 12.90646339 86.00371314 17.8486135 86.68786621 22.89361572 C86.88073416 24.28986443 86.88073416 24.28986443 87.07749844 25.71432018 C88.34474127 35.1823832 89.1988032 44.65580645 89.82678223 54.18585205 C89.92081172 55.59389823 89.92081172 55.59389823 90.0167408 57.03038979 C91.76173719 83.99715643 91.66873715 111.00440764 91.61224365 138.01476669 C91.6030981 142.57298709 91.6018448 147.13119444 91.60095215 151.68942261 C91.57502743 220.10724974 90.15398857 288.50395723 88.66146553 356.90293193 C88.59072896 360.14521736 88.5202662 363.38750866 88.44983768 366.6298008 C88.25174676 375.73097925 88.05196992 384.83209621 87.8412419 393.9329918 C87.00440272 430.17269919 87.23513888 466.32401685 87.90740967 502.56458855 C88.04629781 510.06445062 88.17901041 517.56441531 88.31066895 525.06440735 C88.35659028 527.6761886 88.40251929 530.28796972 88.44845581 532.89975071 C88.4714613 534.20780111 88.49446678 535.51585152 88.5181694 536.86353981 C88.63662795 543.58760733 88.75584683 550.31166117 88.87561035 557.03570557 C88.88757281 557.70743593 88.89953527 558.37916629 88.91186023 559.07125212 C89.08974005 569.04971376 89.27257567 579.02807741 89.4576416 589.00640869 C90.51895021 646.35849018 91.3556518 703.69783005 91.3542099 761.05979466 C91.35412739 764.88574446 91.35548426 768.71169202 91.35687256 772.53764153 C91.36080549 803.19592704 91.17715349 833.82271635 89.75915527 864.45295715 C89.72686892 865.1504224 89.69458256 865.84788765 89.66131783 866.56648821 C88.93982956 881.65074162 87.60588414 896.58492322 84.16662598 911.3225708 C83.98100098 912.28678955 83.79537598 913.2510083 83.60412598 914.2444458 C81.16316139 917.77323157 77.1985381 918.29607067 73.16662598 919.3225708 C68.850944 920.09139169 64.52861587 920.56336595 60.16662598 920.9866333 C58.87409912 921.11277008 57.58157227 921.23890686 56.24987793 921.36886597 C40.03861699 922.83998932 23.78149899 922.77652733 7.51721191 922.71368408 C3.06042772 922.69659347 -1.39581891 922.706775 -5.85258484 922.72399521 C-64.90100469 922.91779562 -64.90100469 922.91779562 -79.83337402 916.3225708 C-88.44343625 906.84608245 -87.78720454 888.48622328 -88.61120605 876.43829346 C-88.83227002 873.33805347 -89.09127654 870.24317117 -89.36071777 867.14678955 C-90.38121682 855.13643221 -91.051022 843.12527992 -91.38415527 831.07647705 C-91.41579332 829.94368474 -91.41579332 829.94368474 -91.44807053 828.78800774 C-92.15330999 802.39152893 -91.98332842 775.97421585 -91.96194333 749.5703392 C-91.95817228 744.37372948 -91.95953192 739.17713881 -91.96374512 733.98052979 C-91.98729376 704.18737319 -91.97139506 674.41398936 -91.0157795 644.63286018 C-90.7600304 636.40738228 -90.65418653 628.18006085 -90.55212402 619.95147705 C-90.54256557 619.2003898 -90.53300713 618.44930256 -90.52315903 617.67545509 C-90.44683302 611.65457746 -90.37636608 605.63363578 -90.30731201 599.6126709 C-90.24656573 594.32972638 -90.18261949 589.04683337 -90.11462402 583.76397705 C-90.10517572 583.01673119 -90.09572742 582.26948532 -90.08599281 581.49959564 C-89.9744528 572.93189272 -89.78566989 564.37598373 -89.45088196 555.81355286 C-88.4524742 530.06672786 -88.63667098 504.29606526 -88.64539862 478.53414869 C-88.64587625 476.4378058 -88.64572209 474.34146391 -88.64534378 472.245121 C-88.63791152 429.99161194 -88.97365358 387.7570174 -89.77087402 345.5100708 C-89.79268864 344.35381447 -89.81450325 343.19755814 -89.83697891 342.00626373 C-90.38715245 313.01035344 -90.38715245 313.01035344 -91.11853027 284.01861572 C-92.00064843 252.3911832 -91.98690823 220.76735346 -91.96194345 189.13044876 C-91.95815657 183.77301498 -91.95954816 178.41559963 -91.96374512 173.0581665 C-92.02571666 91.59284985 -92.02571666 91.59284985 -89.58605957 61.60162354 C-89.39046534 59.19347939 -89.20785466 56.78457776 -89.0267334 54.37530518 C-88.43043725 46.61177551 -87.72668993 38.86427531 -86.84899902 31.1272583 C-86.73782494 30.11857948 -86.73782494 30.11857948 -86.62440491 29.08952332 C-84.61925122 12.18762035 -84.61925122 12.18762035 -79.63415527 7.06085205 C-59.77156494 -5.26669704 -22.56400348 -0.11046702 0 0 Z M-41.33337402 80.6350708 C-42.58718872 80.72335144 -42.58718872 80.72335144 -43.86633301 80.81341553 C-46.24223274 80.98507234 -48.61578442 81.17540987 -50.98962402 81.37335205 C-51.68273682 81.42350967 -52.37584961 81.4736673 -53.08996582 81.52534485 C-58.47227953 82.01619751 -63.51777981 83.26704332 -67.64196777 86.92803955 C-69.50812025 90.6787001 -70.17339559 94.52761293 -70.89587402 98.6350708 C-71.15074585 100.06858887 -71.15074585 100.06858887 -71.4107666 101.53106689 C-73.50326493 114.22267702 -74.1679746 127.06570831 -74.72622681 139.90289307 C-74.80067911 141.58423007 -74.87950765 143.2653767 -74.96176147 144.9463501 C-76.11894264 168.92827893 -76.03002116 192.92597253 -76.02185059 216.92975998 C-76.02085982 220.62556853 -76.02186785 224.32137296 -76.02307129 228.0171814 C-76.02807443 269.73574936 -75.54530406 311.43973247 -74.90410233 353.15273666 C-73.69082641 432.1062738 -73.03601115 511.00889727 -74.97476196 589.95770264 C-75.88056449 627.13361258 -76.03235993 664.29843444 -76.02185059 701.48325348 C-76.02081632 705.23194759 -76.02141803 708.98063932 -76.02248508 712.72933334 C-76.02455972 720.5752798 -76.01969417 728.4211893 -76.00713539 736.26712608 C-76.00295823 738.88882802 -76.00089906 741.5105035 -75.99995995 744.13221169 C-75.98755642 764.92424499 -75.48323725 785.61475993 -73.52087402 806.3225708 C-73.36328613 808.21555908 -73.36328613 808.21555908 -73.20251465 810.14678955 C-72.04349161 824.28417482 -72.04349161 824.28417482 -66.57824707 837.0881958 C-61.94222783 840.36785346 -56.17980774 840.84830684 -50.67272949 841.42877197 C-49.88815306 841.51292201 -49.10357662 841.59707205 -48.29522514 841.68377209 C-39.33602199 842.5710719 -30.39903915 842.63162696 -21.40368652 842.62335205 C-19.5940237 842.62725711 -17.78436176 842.63159534 -15.97470093 842.63633728 C-12.21157844 842.6437268 -8.4485499 842.64356149 -4.6854248 842.63824463 C0.07650054 842.63245499 4.83803628 842.6494049 9.59989738 842.6725893 C13.32884878 842.68749962 17.05771 842.68817526 20.78668594 842.68507957 C22.53971249 842.68558399 24.29274533 842.69065074 26.04574203 842.70089149 C47.72549606 843.20717125 47.72549606 843.20717125 68.16662598 837.3225708 C82.36952182 805.99896365 75.40075789 757.41265787 75.41500854 723.74217606 C75.41609138 721.24360748 75.41782612 718.7450391 75.42019653 716.24647141 C75.47821208 653.09963908 74.38139462 589.96764179 73.2874217 526.8321023 C73.23431997 523.76316229 73.18151015 520.69421739 73.12878799 517.62527084 C73.09427246 515.61853771 73.05974573 513.61180477 73.02520752 511.60507202 C73.00835065 510.62527075 72.99149378 509.64546948 72.9741261 508.63597727 C72.87671061 502.99645837 72.77598319 497.35701113 72.67260617 491.71759856 C72.16807606 464.06798179 71.69629335 436.3945146 72.50645256 408.74599075 C72.57419165 406.43335491 72.63566673 404.12060237 72.69630432 401.80776978 C72.80561874 397.67184795 72.91963284 393.5360736 73.03546143 389.40032959 C74.62393772 332.65854448 75.35639147 275.93900753 75.3517372 219.17717099 C75.35208925 212.86256713 75.36377446 206.54801817 75.37767237 200.23343164 C75.39092488 193.9752789 75.39610592 187.71715018 75.3954733 181.4589836 C75.39522514 177.79288269 75.39768333 174.12684993 75.40865135 170.46076393 C75.45111724 155.19145692 75.18588205 139.97849174 74.27722168 124.7354126 C74.23833781 124.06419046 74.19945393 123.39296832 74.15939176 122.70140612 C73.78216872 103.37347308 73.78216872 103.37347308 68.16662598 85.3225708 C55.33330892 77.7702593 33.67188805 79.57788241 19.16662598 79.3225708 C18.49524597 79.3092572 17.82386597 79.2959436 17.13214111 79.28222656 C-2.41271913 78.90014326 -21.83339702 79.18628475 -41.33337402 80.6350708 Z " fill="#86CBC4" transform="translate(574.8333740234375,300.67742919921875)"/>
<path d="M0 0 C60.39 0 120.78 0 183 0 C183.061875 20.109375 183.12375 40.21875 183.1875 60.9375 C183.21481201 67.15327881 183.24212402 73.36905762 183.27026367 79.77319336 C183.33869343 106.77023086 183.07037585 133.66619695 181.61328125 160.62890625 C181.55041616 161.80026564 181.48755108 162.97162502 181.42278099 164.17848015 C180.83537032 174.83553942 180.15526907 185.47641371 179.00854492 196.08959961 C178.93410565 196.78459092 178.85966639 197.47958223 178.78297138 198.19563389 C178.01193291 204.80849413 177.04397029 212.04031659 174 218 C168.91158098 221.71626108 162.77949027 221.94596879 156.6875 222.625 C155.71232422 222.74617188 154.73714844 222.86734375 153.73242188 222.9921875 C135.54263557 225.14731994 117.34482292 225.18792327 99.05737305 225.18530273 C96.16375404 225.185222 93.27029516 225.19209298 90.37670898 225.20581055 C25.73683724 225.50744539 25.73683724 225.50744539 11 218 C2.70827135 206.9648352 3.38868061 188.19050166 2.3125 174.875 C2.22150024 173.76656738 2.22150024 173.76656738 2.12866211 172.63574219 C0.21060488 148.79590014 -0.1518475 124.92996235 -0.10128021 101.02394104 C-0.0954439 97.80217613 -0.09530964 94.58041212 -0.09460449 91.35864258 C-0.08942529 82.03075702 -0.07546463 72.70287799 -0.0625 63.375 C-0.041875 42.46125 -0.02125 21.5475 0 0 Z " fill="#CBD5EE" transform="translate(57,998)"/>
<path d="M0 0 C0.8398645 -0.00374854 1.679729 -0.00749708 2.54504395 -0.01135921 C5.3281709 -0.01865226 8.11027364 0.00281447 10.89331055 0.02490234 C12.86093578 0.02657362 14.82856287 0.02669049 16.79618835 0.02534485 C22.04323638 0.02753932 27.28982403 0.05605706 32.53674316 0.09116745 C35.77303628 0.11079743 39.00926755 0.12293141 42.24560547 0.13235474 C70.33780871 0.21487461 98.40836104 0.47803634 126.4675293 1.95068359 C127.58112068 2.00860832 127.58112068 2.00860832 128.71720886 2.06770325 C132.69222275 2.30090147 136.55334848 2.75537114 140.4675293 3.48583984 C136.9457755 7.76905392 133.26450805 11.68944638 129.2800293 15.54833984 C123.01641797 21.69653229 117.71678647 28.46750633 112.4675293 35.48583984 C112.01909668 36.08412598 111.57066406 36.68241211 111.10864258 37.29882812 C105.29795085 45.08059354 99.67604941 52.99296526 94.08886719 60.93603516 C88.29043465 69.174001 82.40979804 77.35104737 76.4675293 85.48583984 C75.96753418 86.17033203 75.46753906 86.85482422 74.95239258 87.56005859 C69.32795219 95.22991861 63.53072414 102.71970343 57.4675293 110.04833984 C56.87214355 110.76884521 56.27675781 111.48935059 55.66333008 112.23168945 C53.00951895 115.43665441 50.34504773 118.6309414 47.65112305 121.80224609 C39.4136502 131.6501515 32.36873693 142.29961808 25.29150391 152.99414062 C17.96836126 164.0160334 9.96177019 174.34589334 1.4675293 184.48583984 C0.83588867 184.36466797 0.20424805 184.24349609 -0.4465332 184.11865234 C-18.69781147 180.699825 -36.59237488 179.32371293 -55.12231445 179.28271484 C-56.43836764 179.27847378 -56.43836764 179.27847378 -57.78100777 179.27414703 C-62.43864352 179.25923989 -67.09624906 179.2499611 -71.75390625 179.24560547 C-75.53427953 179.24125159 -79.31442062 179.22746837 -83.09472656 179.20458984 C-101.33000964 179.09657848 -119.49705877 179.02810972 -137.66137695 180.81396484 C-138.85117661 180.93068542 -140.04097626 181.04740601 -141.26683044 181.16766357 C-148.38701664 181.9733871 -155.08238432 183.26079665 -161.5324707 186.48583984 C-160.94714263 182.90184318 -159.99543718 180.07167763 -158.30981445 176.86083984 C-157.85791748 175.99612061 -157.40602051 175.13140137 -156.94042969 174.24047852 C-156.45517822 173.33144775 -155.96992676 172.42241699 -155.4699707 171.48583984 C-154.97118408 170.54393799 -154.47239746 169.60203613 -153.95849609 168.6315918 C-150.08892481 161.38787868 -145.94226012 154.41429745 -141.5324707 147.48583984 C-140.70665855 146.12170308 -139.88391748 144.755704 -139.0637207 143.38818359 C-131.39307467 130.68159168 -131.39307467 130.68159168 -126.15356445 125.96240234 C-124.40488618 124.36963033 -122.93014197 122.67017538 -121.4074707 120.86083984 C-114.30509982 112.63619817 -106.44999856 104.97649883 -98.1574707 97.96240234 C-96.27623787 96.32621935 -96.27623787 96.32621935 -94.0324707 93.42333984 C-91.89751879 90.91477135 -90.50082664 89.72990492 -87.8449707 87.98583984 C-81.3983615 83.40923942 -76.04525603 75.51141049 -72.5324707 68.48583984 C-72.37868218 66.52809915 -72.28275607 64.56566632 -72.21606445 62.60302734 C-72.17416992 61.43642578 -72.13227539 60.26982422 -72.08911133 59.06787109 C-72.04979492 57.84455078 -72.01047852 56.62123047 -71.9699707 55.36083984 C-71.90519531 53.51425781 -71.90519531 53.51425781 -71.83911133 51.63037109 C-71.73278366 48.58231131 -71.6307529 45.53416795 -71.5324707 42.48583984 C-71.2024707 42.48583984 -70.8724707 42.48583984 -70.5324707 42.48583984 C-70.0374707 52.88083984 -70.0374707 52.88083984 -69.5324707 63.48583984 C-67.6762207 61.19646484 -67.6762207 61.19646484 -65.7824707 58.86083984 C-50.45553497 40.15473717 -50.45553497 40.15473717 -42.3137207 32.26318359 C-40.51619501 30.46959984 -38.86770611 28.60476554 -37.2199707 26.67333984 C-30.37666271 18.7363525 -22.77232152 10.97534159 -14.5324707 4.48583984 C-13.67825027 3.80419769 -12.82402985 3.12255554 -11.94392395 2.42025757 C-7.84725649 0.09729853 -4.57708187 -0.06593923 0 0 Z " fill="#FCE7DC" transform="translate(655.532470703125,122.51416015625)"/>
<path d="M0 0 C4.51763336 -0.06969639 9.03421755 -0.06069541 13.55224609 -0.04589844 C14.3991098 -0.04434753 15.24597351 -0.04279663 16.11849976 -0.04119873 C55.19270173 0.04071878 94.22253169 0.96148217 133.23974609 3.07910156 C133.23974609 6.07910156 133.23974609 6.07910156 130.93115234 8.61035156 C129.89346101 9.60546748 128.85009267 10.59468471 127.80224609 11.57910156 C122.65295359 16.58071169 117.96693896 21.74338199 113.54443359 27.41064453 C112.02654747 29.35174366 110.49204203 31.27925869 108.95849609 33.20800781 C102.31327395 41.61169455 96.00772014 50.15642241 90.00537109 59.02832031 C85.47297107 65.71116481 80.69817966 72.222216 75.93994141 78.74511719 C74.21902992 81.10754019 72.50667425 83.47601419 70.79443359 85.84472656 C62.51824318 97.24203744 53.73297441 108.11530637 44.70214844 118.91845703 C36.08866382 129.27450493 28.55444098 140.24361687 21.03857422 151.41357422 C16.55641369 158.05529906 11.98592373 164.62319167 7.23974609 171.07910156 C6.76021484 171.7392627 6.28068359 172.39942383 5.78662109 173.07958984 C4.38561507 174.98102242 2.94712179 176.84566709 1.48974609 178.70410156 C1.07821289 179.26750244 0.66667969 179.83090332 0.24267578 180.41137695 C-0.99462891 181.93066406 -0.99462891 181.93066406 -3.76025391 184.07910156 C-6.7339235 184.04606079 -8.90234887 183.71901309 -11.76025391 183.07910156 C-13.83488515 182.7348917 -15.91197288 182.40530781 -17.99072266 182.08691406 C-19.11526855 181.91321289 -20.23981445 181.73951172 -21.3984375 181.56054688 C-63.94889669 175.46690087 -110.80834946 176.56474188 -153.32275391 182.51660156 C-154.1094043 182.62657471 -154.89605469 182.73654785 -155.70654297 182.84985352 C-160.19641753 183.57054367 -163.80763008 184.83740811 -167.76025391 187.07910156 C-167.17268089 183.46652678 -166.20022508 180.62029319 -164.50244141 177.38378906 C-164.04530762 176.50867676 -163.58817383 175.63356445 -163.1171875 174.73193359 C-162.38363037 173.35690674 -162.38363037 173.35690674 -161.63525391 171.95410156 C-161.13461426 171.00776855 -160.63397461 170.06143555 -160.11816406 169.08642578 C-157.12423561 163.47993029 -154.01636222 158.01909344 -150.48291016 152.73144531 C-149.16560474 150.70321316 -147.94598896 148.68446325 -146.75634766 146.58300781 C-135.97700618 127.62335477 -120.0262152 111.13794959 -103.20654297 97.36816406 C-101.4829363 95.90105473 -101.4829363 95.90105473 -99.32275391 93.07910156 C-97.15496626 90.54120383 -95.75870848 89.34108776 -93.07275391 87.57910156 C-85.91510508 82.42613257 -81.40648899 74.05319654 -76.58056641 66.80566406 C-63.80518618 47.85317692 -47.29693844 31.57240302 -31.26025391 15.39160156 C-30.42357178 14.54186768 -29.58688965 13.69213379 -28.72485352 12.81665039 C-26.43957742 10.52816432 -24.12316878 8.28714972 -21.76025391 6.07910156 C-20.88820312 5.25998291 -20.88820312 5.25998291 -19.99853516 4.42431641 C-14.07779924 -0.48912091 -7.35910217 0.15480776 0 0 Z " fill="#FCE8DC" transform="translate(234.76025390625,121.9208984375)"/>
<path d="M0 0 C0.842211 0.00121857 1.684422 0.00243713 2.55215454 0.00369263 C32.92961931 0.05404766 63.32687738 0.60646336 93.6875 1.625 C95.27437622 1.67805298 95.27437622 1.67805298 96.89331055 1.73217773 C99.82621298 1.84192443 102.75633887 1.97595791 105.6875 2.125 C107.55728516 2.21587891 107.55728516 2.21587891 109.46484375 2.30859375 C111.36943359 2.41880859 111.36943359 2.41880859 113.3125 2.53125 C115.06433594 2.62889648 115.06433594 2.62889648 116.8515625 2.72851562 C119.6875 3.125 119.6875 3.125 121.6875 5.125 C121.22601562 5.50269531 120.76453125 5.88039062 120.2890625 6.26953125 C108.67091064 16.07378193 99.71185279 27.99974376 90.6875 40.125 C90.20635742 40.77017578 89.72521484 41.41535156 89.22949219 42.08007812 C83.4673721 49.82481977 77.86619653 57.67785089 72.31054688 65.5715332 C61.64652204 80.71492883 50.71260337 95.524075 39.00463867 109.87646484 C36.22428183 113.28620283 33.45380391 116.7038551 30.6875 120.125 C30.13191406 120.81013672 29.57632813 121.49527344 29.00390625 122.20117188 C20.8638597 132.28693394 13.50482931 142.72949225 6.38549805 153.55883789 C2.0961282 160.0676981 -2.25541158 166.42310432 -7.1796875 172.46875 C-9.35873977 175.08561574 -9.35873977 175.08561574 -11.1328125 177.96875 C-13.06665062 180.74811908 -14.36514989 182.44013687 -17.3125 184.125 C-23.89765002 184.35297255 -30.05908215 183.20947262 -36.3125 181.125 C-79.01725921 175.7869051 -137.73200325 171.89534622 -179.3125 185.125 C-179.8075 186.115 -179.8075 186.115 -180.3125 187.125 C-179.73287182 183.70091408 -178.87854802 180.86548026 -177.34375 177.75390625 C-176.7413147 176.53223755 -176.7413147 176.53223755 -176.12670898 175.28588867 C-175.69302002 174.42842041 -175.25933105 173.57095215 -174.8125 172.6875 C-174.13973022 171.35005737 -174.13973022 171.35005737 -173.45336914 169.9855957 C-170.15984043 163.54521364 -166.54036033 157.46759012 -162.50390625 151.47265625 C-160.98116451 149.19893664 -159.59566833 146.89403131 -158.27734375 144.49609375 C-152.4022858 133.87927305 -144.84883646 125.68620561 -136.3125 117.125 C-134.94855881 115.73632496 -133.58527694 114.34700203 -132.22265625 112.95703125 C-122.1982466 102.79430368 -122.1982466 102.79430368 -118.0703125 99.421875 C-115.82570246 97.55242641 -114.0548717 95.83042917 -112.25 93.5625 C-109.84985722 90.67728899 -107.41543359 88.27981499 -104.3125 86.125 C-103.6525 86.125 -102.9925 86.125 -102.3125 86.125 C-102.04566406 85.55652344 -101.77882813 84.98804688 -101.50390625 84.40234375 C-100.2491099 82.00383138 -98.82180424 79.89099862 -97.25 77.6875 C-95.21365707 74.82402396 -93.19850473 71.95540252 -91.23828125 69.0390625 C-83.11335415 56.99024781 -73.61890419 46.2924092 -63.73925781 35.66503906 C-62.25391863 34.06176741 -60.77839292 32.44990556 -59.3046875 30.8359375 C-49.86529535 20.51150794 -40.27747322 10.86115834 -29.3125 2.125 C-28.9825 1.795 -28.6525 1.465 -28.3125 1.125 C-19.00644853 -0.40702805 -9.40252895 -0.0297985 0 0 Z " fill="#FCE8DC" transform="translate(894.3125,124.875)"/>
<path d="M0 0 C4.52035003 -0.07719923 9.03920748 -0.06851716 13.56005859 -0.05371094 C14.4069223 -0.05216003 15.25378601 -0.05060913 16.12631226 -0.04901123 C55.20051423 0.03290628 94.23034419 0.95366967 133.24755859 3.07128906 C133.24755859 6.07128906 133.24755859 6.07128906 130.93896484 8.60253906 C129.90118563 9.59756333 128.8578221 10.58678379 127.81005859 11.57128906 C112.54249246 26.42163543 100.40012397 44.44299718 88.22021484 61.84082031 C75.18731468 80.44244211 61.71585075 98.76312293 47.14624023 116.1953125 C36.39202839 129.08556394 26.79711533 142.63970344 17.56665039 156.65063477 C13.09854793 163.39032617 8.29405537 169.75434555 3.24755859 176.07128906 C2.32716797 177.36292969 2.32716797 177.36292969 1.38818359 178.68066406 C-2.5175001 183.87629833 -2.5175001 183.87629833 -5.83056641 184.39941406 C-8.23134593 184.18116138 -10.41288629 183.64983415 -12.75244141 183.07128906 C-21.0442983 181.08109032 -29.31635481 180.41387144 -37.81494141 179.94628906 C-38.92050385 179.88374939 -38.92050385 179.88374939 -40.04840088 179.81994629 C-69.03167836 178.23167463 -98.20582911 178.39632677 -127.18994141 179.88378906 C-128.27659088 179.93605652 -128.27659088 179.93605652 -129.38519287 179.98937988 C-137.51443762 180.39695347 -145.50373993 181.22012819 -153.53759766 182.52050781 C-154.29874374 182.64206741 -155.05988983 182.76362701 -155.84410095 182.88887024 C-160.75442457 183.73493534 -164.21262742 184.53147508 -167.75244141 188.07128906 C-167.11968116 183.67527054 -165.48452617 179.99884494 -163.50244141 176.07128906 C-163.16035645 175.38921387 -162.81827148 174.70713867 -162.46582031 174.00439453 C-157.9457732 165.220743 -152.60502917 156.92486585 -147.32202148 148.58740234 C-145.70806596 146.00015305 -144.15107585 143.3841947 -142.60009766 140.75878906 C-133.74579688 125.94664341 -120.45136145 112.58680631 -107.1159668 101.74023438 C-103.43605695 98.73007847 -100.36155846 95.55454138 -97.35400391 91.88769531 C-95.64390999 89.94819856 -93.81636459 88.39315587 -91.81494141 86.75878906 C-85.09197612 81.03325794 -80.61219108 73.39540688 -75.81494141 66.07128906 C-69.20191678 56.08742309 -61.27102838 47.30927768 -53.13330078 38.56542969 C-51.8119946 37.13572781 -50.50832565 35.68978629 -49.20556641 34.24316406 C-43.66382998 28.09687457 -37.9510208 22.13898835 -32.12744141 16.25878906 C-31.08885986 15.20075073 -31.08885986 15.20075073 -30.02929688 14.12133789 C-27.9734481 12.06184485 -25.88025841 10.05623695 -23.75244141 8.07128906 C-23.04635742 7.40049316 -22.34027344 6.72969727 -21.61279297 6.03857422 C-14.61084526 -0.07139571 -8.95338569 0.17009685 0 0 Z " fill="#FCE7DC" transform="translate(446.75244140625,124.9287109375)"/>
<path d="M0 0 C1.57418701 0.00090637 1.57418701 0.00090637 3.18017578 0.00183105 C17.0296015 0.02329086 30.85555665 0.221373 44.6875 0.9375 C45.36736969 0.96816559 46.04723938 0.99883118 46.74771118 1.03042603 C57.19253001 1.52300793 71.21284439 2.20439626 80.1875 8.1875 C81.06640625 10.5859375 81.06640625 10.5859375 81.75 13.5625 C81.97816406 14.51898438 82.20632813 15.47546875 82.44140625 16.4609375 C84.29461598 25.71728347 85.57468918 34.89680023 86.25 44.3125 C86.33233887 45.44228271 86.41467773 46.57206543 86.49951172 47.73608398 C88.31023776 73.56851117 88.1875 99.24105739 88.1875 125.1875 C28.1275 125.1875 -31.9325 125.1875 -93.8125 125.1875 C-93.8125 18.65325342 -93.8125 18.65325342 -81.8125 6.1875 C-58.09192718 -3.47071369 -25.07795757 -0.02703229 0 0 Z " fill="#ED8876" transform="translate(363.8125,302.8125)"/>
<path d="M0 0 C1.10292389 0.00027191 2.20584778 0.00054382 3.3421936 0.00082397 C66.39328103 0.07194856 66.39328103 0.07194856 75.7109375 7.35546875 C94.37680857 31.09714686 84.9375 108.00142024 84.9375 125.1875 C24.8775 125.5175 -35.1825 125.8475 -97.0625 126.1875 C-97.0625 84.71002639 -97.0625 84.71002639 -96.3125 70.9375 C-96.2705954 70.12448425 -96.2286908 69.31146851 -96.18551636 68.47381592 C-95.57552688 56.86820289 -94.60058797 45.34048681 -93.125 33.8125 C-92.96741211 32.57209961 -92.80982422 31.33169922 -92.64746094 30.05371094 C-90.32586638 13.30938466 -90.32586638 13.30938466 -86.25 7.6875 C-79.94633302 3.3649855 -72.05362796 3.35773589 -64.6875 2.625 C-63.5325 2.49931641 -62.3775 2.37363281 -61.1875 2.24414062 C-40.86542431 0.16624102 -20.4106197 -0.01912825 0 0 Z " fill="#F9C28E" transform="translate(801.0625,302.8125)"/>
<path d="M0 0 C59.73 0 119.46 0 181 0 C181 55.65803109 181 55.65803109 176 79 C175.76603516 80.66482422 175.76603516 80.66482422 175.52734375 82.36328125 C175.00957658 85.32030711 174.47120839 87.392343 173 90 C165.1847332 93.99043134 155.09288214 93.95438778 146.4609375 94.6640625 C145.72729351 94.72687031 144.99364952 94.78967812 144.2377739 94.85438919 C128.10139619 96.21656343 112.01013084 96.4773432 95.8245163 96.38631821 C93.581838 96.3747779 91.33919877 96.36873569 89.09649658 96.36392212 C71.83256306 96.32019215 54.58651319 96.17219922 37.375 94.6875 C36.33270233 94.59949127 36.33270233 94.59949127 35.26934814 94.50970459 C13.53916863 92.58272479 13.53916863 92.58272479 8 86 C7.114287 83.53389713 6.4465322 81.28462104 5.875 78.75 C5.56304687 77.48671875 5.25109375 76.2234375 4.9296875 74.921875 C2.30917803 62.08026231 1.57624425 49.05000722 0.99462891 35.98999023 C0.87465552 33.30478999 0.74469317 30.6202093 0.61328125 27.93554688 C0.5306669 26.18231905 0.44861627 24.42906454 0.3671875 22.67578125 C0.32971405 21.89624588 0.2922406 21.11671051 0.25363159 20.31355286 C-0.04322385 13.52348521 0 6.8192663 0 0 Z " fill="#ED8876" transform="translate(270,1130)"/>
<path d="M0 0 C59.4 0 118.8 0 180 0 C180 34.91486551 180 34.91486551 179.1875 45.5 C179.05492798 47.33425537 179.05492798 47.33425537 178.91967773 49.20556641 C178.32542603 56.95258569 177.56257689 64.66972726 176.5625 72.375 C176.45252686 73.24189453 176.34255371 74.10878906 176.22924805 75.00195312 C174.34436148 88.23162389 174.34436148 88.23162389 170.1875 91.3671875 C151.21590045 95.77130883 131.00057014 96.13833345 111.609375 96.203125 C110.18201675 96.21006491 108.75465876 96.21705998 107.32730103 96.22410583 C102.80153061 96.24321599 98.27580603 96.24801984 93.75 96.25 C92.59785381 96.25110464 92.59785381 96.25110464 91.42243195 96.2522316 C54.50379676 96.28109528 54.50379676 96.28109528 36.375 94.6875 C35.33514954 94.59921936 35.33514954 94.59921936 34.27429199 94.50915527 C14.43913036 92.75130428 14.43913036 92.75130428 8.5 88 C2.27644952 75.55289904 1.8574358 60.68014045 1.34130859 47.01586914 C1.3098877 46.20754639 1.2784668 45.39922363 1.24609375 44.56640625 C1.22216553 43.85427979 1.1982373 43.14215332 1.17358398 42.40844727 C0.94639001 39.25617074 0.44695558 36.12868904 0 33 C0 22.11 0 11.22 0 0 Z " fill="#FAC28E" transform="translate(705,1130)"/>
<path d="M0 0 C4.8008285 3.20897484 8.91449932 6.88699399 12.96875 10.984375 C13.59265625 11.57476562 14.2165625 12.16515625 14.859375 12.7734375 C25.9724412 24.13679798 31.16030391 40.67204321 31.28125 56.234375 C31.20167107 62.03819535 30.8010282 67.45891106 28.96875 72.984375 C28.63875 73.98855469 28.30875 74.99273437 27.96875 76.02734375 C25.23076549 83.70991213 21.71561243 90.36010181 16.96875 96.984375 C16.50855469 97.63019531 16.04835938 98.27601563 15.57421875 98.94140625 C6.3242865 110.75039756 -9.26415276 118.78060953 -23.96044922 120.76904297 C-36.10619496 122.03201724 -47.65125016 121.80747742 -59.03125 116.984375 C-60.36542969 116.42363281 -60.36542969 116.42363281 -61.7265625 115.8515625 C-67.82029354 113.03763777 -72.96865107 109.36706046 -78.03125 104.984375 C-78.71058594 104.40042969 -79.38992187 103.81648437 -80.08984375 103.21484375 C-91.56090757 92.59348836 -98.55370519 78.11698043 -99.54296875 62.58984375 C-100.03558189 49.26592033 -99.34932109 37.83601167 -93.03125 25.984375 C-92.50144531 24.97632813 -91.97164063 23.96828125 -91.42578125 22.9296875 C-81.88892619 6.57432087 -66.08377553 -3.46258978 -48.12036133 -8.55761719 C-32.01755187 -12.08792811 -14.00527674 -8.11196722 0 0 Z " fill="#E4E8F6" transform="translate(183.03125,423.015625)"/>
<path d="M0 0 C60.06 0 120.12 0 182 0 C182 23.1 182 46.2 182 70 C121.94 70 61.88 70 0 70 C0 46.9 0 23.8 0 0 Z " fill="#FCE7DB" transform="translate(704,429)"/>
<path d="M0 0 C60.06 0 120.12 0 182 0 C182 23.1 182 46.2 182 70 C122.27 70 62.54 70 1 70 C-0.93792558 46.74489303 0 23.33571416 0 0 Z " fill="#FCE7DB" transform="translate(270,1060)"/>
<path d="M0 0 C60.39 0 120.78 0 183 0 C183 14.85 183 29.7 183 45 C122.94 45 62.88 45 1 45 C1 48.63 1 52.26 1 56 C0.67 56 0.34 56 0 56 C0 37.52 0 19.04 0 0 Z " fill="#FCE7DB" transform="translate(269,507)"/>
<path d="M0 0 C60.06 0 120.12 0 182 0 C182 14.85 182 29.7 182 45 C121.94 45 61.88 45 0 45 C0 30.15 0 15.3 0 0 Z " fill="#FCE7DB" transform="translate(704,1007)"/>
<path d="M0 0 C0.33 0 0.66 0 1 0 C1 4.62 1 9.24 1 14 C61.06 14 121.12 14 183 14 C183 26.87 183 39.74 183 53 C122.61 53 62.22 53 0 53 C0 35.51 0 18.02 0 0 Z " fill="#FCE7DB" transform="translate(269,415)"/>
<path d="M0 0 C60.06 0 120.12 0 182 0 C182 12.87 182 25.74 182 39 C121.94 39 61.88 39 0 39 C0 26.13 0 13.26 0 0 Z " fill="#FDE8DC" transform="translate(704,1091)"/>
<path d="M0 0 C60.06 0 120.12 0 182 0 C182 12.87 182 25.74 182 39 C121.94 39 61.88 39 0 39 C0 26.13 0 13.26 0 0 Z " fill="#FAC28E" transform="translate(704,1052)"/>
<path d="M0 0 C60.06 0 120.12 0 182 0 C182 12.54 182 25.08 182 38 C121.94 38 61.88 38 0 38 C0 25.46 0 12.92 0 0 Z " fill="#ED8876" transform="translate(270,468)"/>
</svg>
