<?xml version="1.0" encoding="UTF-8"?>
<svg version="1.1" xmlns="http://www.w3.org/2000/svg" width="1080" height="1350">
<path d="M0 0 C8.26776756 7.06954038 11.924039 14.22465957 13.44140625 24.99609375 C14.11927803 36.91351701 8.11447282 47.17083903 1.4375 56.5 C-9.69893626 72.6910413 -17.19799346 87.91631589 -22.875 106.75 C-22.215 106.42 -21.555 106.09 -20.875 105.75 C-8.19768017 104.1161688 3.1168257 104.49461239 14.125 111.75 C14.27195312 111.21632813 14.41890625 110.68265625 14.5703125 110.1328125 C17.89218715 99.09807946 24.13254149 90.91311599 32.125 82.75 C32.64320313 82.19570313 33.16140625 81.64140625 33.6953125 81.0703125 C43.56562135 71.5100657 58.01293281 67.32298879 71.125 64.75 C72.08792969 64.55792969 73.05085938 64.36585938 74.04296875 64.16796875 C97.42825805 60.99657971 123.92968122 65.77521539 143.40234375 79.3359375 C148.77488994 83.59795738 151.49967171 88.47698 154.125 94.75 C154.61226563 94.25371094 155.09953125 93.75742187 155.6015625 93.24609375 C169.23062007 80.18697859 185.10649041 76.24606275 203.47973633 76.32568359 C211.9051289 76.52996046 219.15195187 77.91513844 227.125 80.75 C228.21683594 81.100625 229.30867188 81.45125 230.43359375 81.8125 C243.43769856 86.30851703 254.43079262 94.07265211 264.125 103.75 C264.85589844 104.46929687 265.58679688 105.18859375 266.33984375 105.9296875 C275.33046444 115.33886595 278.125 125.00880923 278.125 137.75 C278.58648438 137.36328125 279.04796875 136.9765625 279.5234375 136.578125 C289.13023157 128.90787835 299.20398742 125.77136698 311.5078125 127.12109375 C331.85602381 130.78559265 349.97945824 144.28309222 361.75 161 C369.96871061 173.1043324 376.67083859 186.20178542 374.71484375 201.234375 C373.79105627 205.17423685 372.15779867 208.25612729 370.125 211.75 C369.795 212.41 369.465 213.07 369.125 213.75 C369.82882812 213.59402344 370.53265625 213.43804687 371.2578125 213.27734375 C386.75397291 210.22261761 401.3120868 212.42601718 414.6875 221 C432.14457032 233.53328125 442.3494497 252.10990971 447.125 272.75 C447.3209375 273.5234375 447.516875 274.296875 447.71875 275.09375 C448.30419261 278.92164401 448.22962229 282.6969698 448.1875 286.5625 C448.18298828 287.35076172 448.17847656 288.13902344 448.17382812 288.95117188 C448.16211312 290.88414761 448.14417998 292.81708393 448.125 294.75 C448.72634766 294.00556641 448.72634766 294.00556641 449.33984375 293.24609375 C461.14729414 279.13605666 476.97504723 271.77841103 495.125 269.75 C519.38833347 268.14062142 543.96126267 270.06025609 563.671875 285.50390625 C567.62205642 289.12071249 570.33371094 292.39918164 571.875 297.5625 C572.11734375 298.35269531 572.3596875 299.14289063 572.609375 299.95703125 C572.86460937 300.84455078 572.86460937 300.84455078 573.125 301.75 C573.9603125 300.75419922 573.9603125 300.75419922 574.8125 299.73828125 C584.83334824 288.14321192 594.95507734 283.84055458 610.0859375 282.36328125 C624.69949167 281.94033407 639.01332444 285.32232146 652.125 291.75 C652.91003906 292.12898438 653.69507813 292.50796875 654.50390625 292.8984375 C667.0684483 299.41014799 678.17556988 309.22506546 683.2890625 322.609375 C684.88508801 328.60565774 685.09598644 334.83704067 683.125 340.75 C684.01251953 340.33427734 684.01251953 340.33427734 684.91796875 339.91015625 C685.70816406 339.54792969 686.49835937 339.18570312 687.3125 338.8125 C688.08980469 338.45285156 688.86710938 338.09320312 689.66796875 337.72265625 C700.84228834 333.29911797 715.21669644 334.98630944 726.05273438 339.56445312 C734.50518491 343.34517887 742.13658257 347.62148549 749.125 353.75 C749.846875 354.31847656 750.56875 354.88695312 751.3125 355.47265625 C761.95524482 364.17531738 769.18585204 376.03946539 774.125 388.75 C774.39054688 389.430625 774.65609375 390.11125 774.9296875 390.8125 C778.61747841 402.53260261 776.37199157 415.31340863 770.96875 426.046875 C770.07362444 427.6453135 769.10856051 429.20440492 768.125 430.75 C769.1975 430.79125 770.27 430.8325 771.375 430.875 C783.07389472 432.40453747 792.6555143 440.30619296 800.0546875 449.0234375 C814.47373708 468.31292161 819.23770553 492.90212328 816.22875977 516.50244141 C813.7610481 532.82148484 806.93146463 547.02377328 794.125 557.75 C787.75877199 562.26759556 780.53681136 564.50513666 773.125 566.75 C773.97771484 567.36875 773.97771484 567.36875 774.84765625 568 C786.39369317 576.63543329 794.22402484 587.21391162 797.65234375 601.4609375 C801.18807413 626.06494562 793.99722999 649.96400455 779.41015625 669.85546875 C767.84299532 684.50720592 754.11516373 698.15960458 735.125 701.75 C722.85951327 702.61725664 722.85951327 702.61725664 719.125 700.75 C719.40214844 701.34167969 719.67929687 701.93335938 719.96484375 702.54296875 C720.32707031 703.33316406 720.68929687 704.12335937 721.0625 704.9375 C721.42214844 705.71480469 721.78179688 706.49210938 722.15234375 707.29296875 C725.8232028 716.56594201 724.78466936 726.66750075 721.125 735.75 C711.9262355 756.42016493 692.62638921 768.21852771 672.5078125 776.5 C665.73826038 779.00145113 659.10590335 780.58806419 651.93066406 781.28393555 C651.03059631 781.3718486 650.13052856 781.45976166 649.20318604 781.55033875 C648.51738464 781.61622696 647.83158325 781.68211517 647.125 781.75 C647.08503403 782.3587648 647.04506805 782.9675296 647.00389099 783.59474182 C645.60638135 804.4632046 643.56684248 825.25106324 641.45404053 846.05682373 C641.09933123 849.55769974 640.74794624 853.05890582 640.3966465 856.56012535 C639.39508999 866.54122345 638.38136316 876.52103175 637.35605621 886.49971771 C637.13266921 888.67530869 636.91012896 890.85098499 636.68768311 893.02667236 C636.29580679 896.85297699 635.89668236 900.67850334 635.49609375 904.50390625 C635.33005394 906.12533791 635.33005394 906.12533791 635.16065979 907.77952576 C632.73812322 930.61808118 632.73812322 930.61808118 626.125 936.75 C613.97931026 946.19420721 599.13111755 947.94788814 584.25170898 947.99023438 C582.22401069 947.99982727 580.19737816 948.03084804 578.16992188 948.0625 C565.54295663 948.16530511 551.81667474 947.14177513 541.125 939.75 C538.52033253 936.83890106 538.18785144 935.30518774 537.75 931.4375 C538.42783986 924.7720747 540.35679215 920.49825894 544.75 915.4375 C548.89497214 910.30646081 549.15727218 906.19636732 549.125 899.75 C549.16109375 898.56535156 549.1971875 897.38070312 549.234375 896.16015625 C549.3738 889.18193517 549.11080839 882.33605854 548.37109375 875.40234375 C548.24318954 874.19813026 548.24318954 874.19813026 548.11270142 872.96958923 C546.79727275 861.19733964 544.85483768 849.50905104 543 837.8125 C542.44063497 834.27250466 541.88269421 830.73230603 541.32839966 827.19151306 C540.98650434 825.00854102 540.6416466 822.8260303 540.29342651 820.64405823 C540.06286057 819.17488197 540.06286057 819.17488197 539.82763672 817.67602539 C539.69154999 816.81844131 539.55546326 815.96085724 539.41525269 815.07728577 C539.125 812.75 539.125 812.75 539.125 808.75 C538.13242187 808.77320313 537.13984375 808.79640625 536.1171875 808.8203125 C525.56098411 808.98892942 515.41199833 808.38801044 505.125 805.75 C505.09196777 806.59578613 505.05893555 807.44157227 505.02490234 808.31298828 C504.2907273 823.39677589 502.58594398 838.3913587 500.98626709 853.40216064 C500.59697957 857.06464123 500.2128628 860.72766419 499.828125 864.390625 C499.37497992 868.7040062 498.91934985 873.01707098 498.45294189 877.32904053 C498.3009627 878.73465745 498.14900533 880.14027674 497.99707031 881.54589844 C497.88571684 882.57555033 497.88571684 882.57555033 497.7721138 883.62600327 C497.27178421 888.28727628 496.81334548 892.95110981 496.37011719 897.61816406 C496.18683365 899.46222336 496.18683365 899.46222336 495.99984741 901.34353638 C495.77358891 903.62233185 495.55897448 905.90232893 495.35879517 908.18356323 C494.3557087 918.00711106 491.36102577 924.55551292 483.6875 930.9921875 C479.46597966 933.88804749 475.02155114 935.37284499 470.125 936.75 C469.42375 936.96269531 468.7225 937.17539063 468 937.39453125 C449.52362705 942.57238577 423.82196491 941.4861018 406.125 933.75 C401.51755243 930.39971815 399.56406513 928.38439078 398.625 922.75 C398.79528822 916.19390354 403.03914967 909.11751625 407.265625 904.3203125 C418.90112422 888.23594593 407.61192602 850.03087247 404.77075195 832.19067383 C404.51738698 830.62812623 404.257423 829.06662553 403.98901367 827.5065918 C403.32120088 823.54042961 402.99932586 819.77157236 403.125 815.75 C402.49078125 815.79640625 401.8565625 815.8428125 401.203125 815.890625 C383.09557839 816.59091686 363.16027308 811.78131826 349.24609375 799.83203125 C344.70190563 795.37152983 341.24028162 790.28827843 338.125 784.75 C337.81369141 785.60271484 337.81369141 785.60271484 337.49609375 786.47265625 C332.76074777 798.34074095 324.22155613 802.97841441 313.00732422 808.03027344 C310.42505289 809.01763218 307.8648509 809.45079631 305.125 809.75 C305.15891846 810.88832275 305.19283691 812.02664551 305.2277832 813.19946289 C305.22168525 820.68820729 304.27239861 828.12119112 303.48046875 835.55859375 C303.30792896 837.20976519 303.13576139 838.86097557 302.96394348 840.51222229 C302.60271854 843.97467753 302.23849134 847.43679834 301.87182617 850.89868164 C301.3199363 856.10962701 300.77591199 861.32137621 300.23242188 866.53320312 C299.45251674 874.00478714 298.65631697 881.47450336 297.84979057 888.94325829 C297.31951044 893.87286874 296.81933444 898.80448676 296.33447266 903.73876953 C296.09442097 906.06676742 295.85404999 908.39473241 295.61328125 910.72265625 C295.51983932 911.743629 295.4263974 912.76460175 295.3301239 913.81651306 C294.5203525 921.386555 292.63881102 927.49839526 287.125 932.9375 C270.37881891 945.99384458 245.06036867 945.53015888 225.0234375 943.24609375 C216.73248051 942.07148205 207.19745137 940.37480685 201.42578125 933.8203125 C199.40383304 930.60219672 198.91403965 927.47476868 199.125 923.75 C200.75060681 917.92829563 203.90589269 913.36670453 207.85546875 908.8671875 C217.27745034 893.15422129 208.78377841 861.71880003 206.125 844.75 C205.80541194 842.69337326 205.48591972 840.63673162 205.16650391 838.58007812 C203.41890124 827.35715531 201.64393573 816.13850714 199.83203125 804.92578125 C199.67487137 803.94277039 199.51771149 802.95975952 199.35578918 801.94696045 C199.20848862 801.04189758 199.06118805 800.13683472 198.90942383 799.2043457 C198.71767326 798.01770073 198.71767326 798.01770073 198.52204895 796.80708313 C198.13553436 794.56376186 198.13553436 794.56376186 197.125 791.75 C196.72152344 792.17410156 196.31804687 792.59820313 195.90234375 793.03515625 C191.46059856 797.32601413 186.8679875 800.112387 181.3125 802.6875 C180.65435303 802.99373291 179.99620605 803.29996582 179.31811523 803.61547852 C176.41735075 804.91211987 174.33657522 805.75 171.125 805.75 C171.05719582 806.71147949 171.05719582 806.71147949 170.98802185 807.69238281 C169.74505567 825.08910168 168.08679159 842.41373493 166.1875 859.75 C165.93259911 862.1093379 165.67804142 864.46871291 165.42382812 866.828125 C164.92096632 871.48529871 164.40943482 876.14139769 163.89111328 880.796875 C163.36171183 885.55517663 162.85877281 890.31542409 162.37060547 895.078125 C162.12099806 897.42710777 161.87116905 899.776067 161.62109375 902.125 C161.51499283 903.20668457 161.40889191 904.28836914 161.29957581 905.40283203 C160.39839358 913.67826558 158.58764057 919.14904484 152.125 924.75 C135.21094341 937.65188503 110.96783243 937.01024639 90.86621094 934.46386719 C82.26309822 933.18625551 74.01632316 931.64132316 67.6875 925.3125 C65.65288761 921.97573569 64.92050201 919.29395979 65.4375 915.390625 C67.13481046 909.48861363 69.51759856 905.44777419 73.6015625 900.85546875 C86.25195728 883.37197442 73.18204668 840.611744 70.08059692 821.13792419 C69.68572433 818.67681716 69.28900019 816.21600644 68.89035034 813.75550842 C66.84143289 801.10571851 64.96930924 788.43102437 63.125 775.75 C62.51600861 775.9587677 61.90701721 776.1675354 61.27957153 776.38262939 C60.07408157 776.79119171 60.07408157 776.79119171 58.84423828 777.20800781 C58.04962189 777.47865051 57.25500549 777.74929321 56.43630981 778.02813721 C34.95822755 784.73612086 7.60951484 777.97340987 -11.6875 768 C-18.25514014 764.45088484 -23.66884163 760.12252057 -28.875 754.75 C-29.74898438 753.88955078 -29.74898438 753.88955078 -30.640625 753.01171875 C-38.69717159 744.48724142 -40.76528784 734.09556462 -41.875 722.75 C-43.02162109 723.07484375 -43.02162109 723.07484375 -44.19140625 723.40625 C-63.99676603 728.55421355 -82.53086853 725.15647319 -99.98632812 714.94335938 C-116.52319703 704.4945208 -130.02179235 687.1720488 -134.47265625 667.9140625 C-136.06985585 655.35356079 -135.68180697 643.55650034 -130.875 631.75 C-130.50117188 630.81027344 -130.12734375 629.87054687 -129.7421875 628.90234375 C-129.45601563 628.19207031 -129.16984375 627.48179687 -128.875 626.75 C-129.80505859 626.72873047 -129.80505859 626.72873047 -130.75390625 626.70703125 C-148.84871151 625.73249298 -164.21583558 617.38770821 -176.875 604.75 C-177.57367188 604.06292969 -178.27234375 603.37585938 -178.9921875 602.66796875 C-195.21610143 585.65495395 -201.33385068 561.49087523 -201.08984375 538.5 C-200.15323192 522.15186618 -196.9443069 500.8193069 -184.875 488.75 C-184.875 487.76 -184.875 486.77 -184.875 485.75 C-186.83097184 484.35287726 -188.8409094 483.03072371 -190.875 481.75 C-205.12911169 471.43851495 -211.91714598 452.52531289 -214.875 435.75 C-220.16534857 402.23233081 -216.01920153 362.16383853 -195.875 333.75 C-190.41501559 326.7562894 -183.74525882 318.37368861 -174.9375 315.9375 C-173.9165625 315.8446875 -173.9165625 315.8446875 -172.875 315.75 C-172.875 315.09 -172.875 314.43 -172.875 313.75 C-173.75671875 313.37875 -173.75671875 313.37875 -174.65625 313 C-181.79593202 308.97764393 -185.56171383 300.26196156 -187.875 292.75 C-193.48232068 270.8511395 -184.84937977 249.36022406 -174.12109375 230.69921875 C-161.57307695 210.115813 -143.47180968 193.04859158 -120.00390625 186.23046875 C-117.875 185.75 -117.875 185.75 -114.875 185.75 C-115.39449219 184.61046875 -115.91398437 183.4709375 -116.44921875 182.296875 C-129.29815174 153.39833889 -133.62085802 121.57949169 -124.875 90.75 C-124.58544434 89.70175049 -124.58544434 89.70175049 -124.29003906 88.63232422 C-118.77324273 69.39600729 -108.47789529 51.20088053 -95.875 35.75 C-95.40674805 35.17040527 -94.93849609 34.59081055 -94.45605469 33.99365234 C-73.7491728 8.50880214 -33.5794969 -24.37581419 0 0 Z " fill="#F8F0E8" transform="translate(241.875,223.25)"/>
<path d="M0 0 C0.66 0 1.32 0 2 0 C2.350625 0.99 2.70125 1.98 3.0625 3 C8.58216607 15.49451683 22.1301013 22.78001002 34.203125 27.94140625 C53.12992926 35.10504306 71.13963191 36.72430554 90.03125 28.71484375 C96.08845841 25.6607176 100.9126742 21.72085937 105.80859375 17.05078125 C107.78681224 15.19950726 109.80112963 13.57777714 112 12 C112.36351562 13.02738281 112.72703125 14.05476563 113.1015625 15.11328125 C120.74852491 36.36170252 131.33805283 52.26756973 152 62.875 C168.24242987 70.51745335 185.97361152 71.49703959 203.03564453 65.74951172 C210.26999367 62.98920202 217.41976628 59.2997209 223.3046875 54.24609375 C226 52 226 52 228 52 C228.03738281 53.08796875 228.07476562 54.1759375 228.11328125 55.296875 C228.88758948 73.88027241 233.06584776 91.11924996 247.02734375 104.375 C258.79488872 114.06866081 271.35623038 117.17791585 286.25 117.1875 C287.23613281 117.19974609 288.22226562 117.21199219 289.23828125 117.22460938 C295.72606715 117.23743109 301.69531564 116.53106328 308 115 C307.59910156 115.59683594 307.19820312 116.19367188 306.78515625 116.80859375 C290.92181895 141.0172695 282.56415279 165.39220124 286.5 194.7265625 C287.16354309 197.58432193 287.97978454 200.25074469 289 203 C289.52787109 204.49853516 289.52787109 204.49853516 290.06640625 206.02734375 C292.4487086 212.26221424 295.44150391 217.51197859 299.44921875 222.84375 C301 225 301 225 301.95703125 227.15625 C303.29730866 229.52557935 304.53030575 229.92621989 307 231 C309.28823058 232.48251559 311.53187692 234.02183351 313.78125 235.5625 C318.79503367 238.81086689 320.98589768 239.02126266 327 238 C328 239 328 239 328.01733398 240.91821289 C327.45276283 247.65806994 325.71844932 253.24308478 323.0625 259.4375 C322.66426025 260.38544434 322.26602051 261.33338867 321.85571289 262.31005859 C309.54006246 291.06495665 291.8308363 317.64655406 267 337 C265.87078125 337.96292969 265.87078125 337.96292969 264.71875 338.9453125 C239.88250126 359.95405716 207.71431853 371.71913621 176 377 C174.21722656 377.31904297 174.21722656 377.31904297 172.3984375 377.64453125 C159.28026531 379.86281098 145.96707018 380.21869386 132.6875 380.25 C132.00422638 380.25167175 131.32095276 380.25334351 130.61697388 380.25506592 C116.92451331 380.25704732 103.55549647 378.92066323 90 377 C88.35320249 376.78258132 86.70608894 376.56753598 85.05859375 376.35546875 C81.70305393 375.92208398 78.35064778 375.46997535 75 375 C74.67 373.68 74.34 372.36 74 371 C73.30261719 370.99742187 72.60523438 370.99484375 71.88671875 370.9921875 C26.09525525 369.31484451 -25.17691282 347.06080236 -58 315 C-58.99323965 314.07775277 -59.98804952 313.15719392 -60.984375 312.23828125 C-87.59122287 287.26420465 -100.63679647 251.49542471 -102.2265625 215.61328125 C-104.16121676 145.79682947 -66.76918185 79.9507293 -23.43994141 27.73974609 C-21.4205368 25.29988899 -19.43129039 22.83580436 -17.4375 20.375 C-4.18172269 4.18172269 -4.18172269 4.18172269 0 0 Z " fill="#C0B0A4" transform="translate(205,449)"/>
<path d="M0 0 C5.86738342 0.41449333 9.49796734 2.93373803 14.1875 6.1875 C14.96706055 6.71706299 15.74662109 7.24662598 16.54980469 7.79223633 C22.38304591 11.7899277 28.07647785 15.9675201 33.75 20.1875 C52.32396496 33.99209453 71.56358753 45.72152023 94 52 C95.62808594 52.47373047 95.62808594 52.47373047 97.2890625 52.95703125 C105.32349322 54.98059134 113.31599549 55.41590052 121.5625 55.9375 C137.27545034 56.96235036 150.23588221 59.27058331 161.375 71.4375 C168.64643541 80.56284245 169.62020251 89.6525911 169 101 C166.68756281 115.34494936 156.84205873 126.50349138 145.48828125 134.7890625 C118.6750208 152.60255556 80.59799005 153.95251001 50 148 C29.73015239 143.79193222 10.85805196 137.17414414 -6 125 C-6.55913086 124.60022949 -7.11826172 124.20045898 -7.69433594 123.78857422 C-33.40594261 105.23054063 -49.23297452 79.47497292 -59.3125 49.8125 C-59.65031494 48.82709229 -59.98812988 47.84168457 -60.33618164 46.82641602 C-63.06218201 38.5407824 -65.43952739 29.79928015 -65 21 C-64 20 -64 20 -61.1875 19.8125 C-57.88173104 19.8459592 -54.80554864 20.37701654 -51.5625 21 C-37.11642177 23.53757961 -21.60521009 23.22930814 -9 15 C-4.0986142 10.76933016 -1.92490991 6.09554804 0 0 Z " fill="#C0B0A4" transform="translate(618,555)"/>
<path d="M0 0 C8.26776756 7.06954038 11.924039 14.22465957 13.44140625 24.99609375 C14.11927803 36.91351701 8.11447282 47.17083903 1.4375 56.5 C-5.63025295 66.73155706 -5.63025295 66.73155706 -11.9375 77.4375 C-12.29295898 78.09306885 -12.64841797 78.7486377 -13.01464844 79.42407227 C-14.98151679 83.28984045 -16.28483213 87.03977933 -17.3359375 91.25 C-20.87274457 105.20014177 -20.87274457 105.20014177 -24.59521484 108.08154297 C-28.18119267 109.79534485 -31.90641234 110.60259615 -35.76953125 111.4609375 C-56.85122807 116.16941513 -78.96189158 133.51887848 -90.875 151.3125 C-95.94631326 159.95481135 -99.42567608 168.59605372 -97.875 178.75 C-96.80875741 181.91655666 -95.49097682 184.82825619 -93.875 187.75 C-94.49761719 187.58628906 -95.12023437 187.42257812 -95.76171875 187.25390625 C-100.08192382 186.55465098 -104.31956045 186.64515607 -108.6875 186.6875 C-110.01297852 186.69426758 -110.01297852 186.69426758 -111.36523438 186.70117188 C-113.53518559 186.71290134 -115.70510172 186.73083505 -117.875 186.75 C-116.885 186.42 -115.895 186.09 -114.875 185.75 C-115.39449219 184.61046875 -115.91398437 183.4709375 -116.44921875 182.296875 C-129.29815174 153.39833889 -133.62085802 121.57949169 -124.875 90.75 C-124.68196289 90.05116699 -124.48892578 89.35233398 -124.29003906 88.63232422 C-118.77324273 69.39600729 -108.47789529 51.20088053 -95.875 35.75 C-95.40674805 35.17040527 -94.93849609 34.59081055 -94.45605469 33.99365234 C-73.7491728 8.50880214 -33.5794969 -24.37581419 0 0 Z " fill="#C0AFA3" transform="translate(241.875,223.25)"/>
<path d="M0 0 C0.4846875 0.38671875 0.969375 0.7734375 1.46875 1.171875 C12.02778094 9.3754298 22.36455585 12.55201712 35.73950195 13.53833008 C37.49747856 13.66924797 37.49747856 13.66924797 39.29096985 13.80281067 C40.1849498 13.86788315 41.07892975 13.93295563 42 14 C40.58938756 35.48655823 38.5042032 56.88696779 36.32904053 78.30682373 C35.97433123 81.80769974 35.62294624 85.30890582 35.2716465 88.81012535 C34.27008999 98.79122345 33.25636316 108.77103175 32.23105621 118.74971771 C32.00766921 120.92530869 31.78512896 123.10098499 31.56268311 125.27667236 C31.17080679 129.10297699 30.77168236 132.92850334 30.37109375 136.75390625 C30.26040054 137.83486069 30.14970734 138.91581512 30.03565979 140.02952576 C27.61312322 162.86808118 27.61312322 162.86808118 21 169 C8.85431026 178.44420721 -5.99388245 180.19788814 -20.87329102 180.24023438 C-22.90098931 180.24982727 -24.92762184 180.28084804 -26.95507812 180.3125 C-39.58204337 180.41530511 -53.30832526 179.39177513 -64 172 C-66.60466747 169.08890106 -66.93714856 167.55518774 -67.375 163.6875 C-66.69716014 157.0220747 -64.76820785 152.74825894 -60.375 147.6875 C-56.23002786 142.55646081 -55.96772782 138.44636732 -56 132 C-55.94585938 130.22302734 -55.94585938 130.22302734 -55.890625 128.41015625 C-55.7512 121.43193517 -56.01419161 114.58605854 -56.75390625 107.65234375 C-56.83917572 106.84953476 -56.92444519 106.04672577 -57.01229858 105.21958923 C-58.32772725 93.44733964 -60.27016232 81.75905104 -62.125 70.0625 C-62.68436503 66.52250466 -63.24230579 62.98230603 -63.79660034 59.44151306 C-64.13849566 57.25854102 -64.4833534 55.0760303 -64.83157349 52.89405823 C-64.98528412 51.91460739 -65.13899475 50.93515656 -65.29736328 49.92602539 C-65.43345001 49.06844131 -65.56953674 48.21085724 -65.70974731 47.32728577 C-66 45 -66 45 -66 41 C-71.28 41 -76.56 41 -82 41 C-82 40.67 -82 40.34 -82 40 C-81.25016846 39.98541748 -80.50033691 39.97083496 -79.7277832 39.95581055 C-76.25556277 39.88029849 -72.7841985 39.78398664 -69.3125 39.6875 C-67.54422852 39.65366211 -67.54422852 39.65366211 -65.74023438 39.61914062 C-54.05223478 39.26689954 -43.30564746 36.83292519 -32.375 32.75 C-31.56595215 32.44916504 -30.7569043 32.14833008 -29.92333984 31.83837891 C-21.24366749 28.49336003 -13.10784154 24.18569593 -7 17 C-6.56042969 16.50113281 -6.12085938 16.00226562 -5.66796875 15.48828125 C-1.82233743 10.73388402 -0.80687966 5.98536106 0 0 Z " fill="#C0AFA3" transform="translate(847,991)"/>
<path d="M0 0 C1.14505889 2.24711087 2.22673206 4.50400502 3.26171875 6.8046875 C9.42487937 20.07658955 18.87022916 25.15363317 32.125 30.6875 C44.61879385 35.21212161 56.59790285 36.2574467 69.8125 36.3125 C70.93285645 36.31805908 72.05321289 36.32361816 73.20751953 36.3293457 C79.71680769 36.27320633 85.8644019 35.68881582 92.25268555 34.42651367 C95.20734873 33.96780963 98.01465112 33.93104605 101 34 C100.41147821 50.32932661 98.59435174 66.54141635 96.86126709 82.77911377 C96.47129848 86.4447784 96.08769621 90.11110971 95.703125 93.77734375 C95.03162207 100.17261397 94.3438347 106.56598838 93.6471138 112.95855713 C93.152972 117.51547696 92.69300277 122.07497065 92.24511719 126.63671875 C92.00486452 128.96617754 91.76432196 131.29560646 91.5234375 133.625 C91.42785553 134.66712646 91.33227356 135.70925293 91.23379517 136.78295898 C90.41233052 144.47494942 88.60411871 150.65469575 83 156.1875 C66.25381891 169.24384458 40.93536867 168.78015888 20.8984375 166.49609375 C12.60748051 165.32148205 3.07245137 163.62480685 -2.69921875 157.0703125 C-4.72116696 153.85219672 -5.21096035 150.72476868 -5 147 C-3.37439319 141.17829563 -0.21910731 136.61670453 3.73046875 132.1171875 C14.91751848 113.46063072 3.22984481 75.47203343 -0.08203125 55.21875 C-0.26446381 54.09774399 -0.44689636 52.97673798 -0.63485718 51.82176208 C-1.5554122 46.16873045 -2.48793441 40.51825562 -3.4453125 34.87133789 C-3.79326892 32.76974369 -4.14093775 30.66810184 -4.48828125 28.56640625 C-4.6557637 27.60404053 -4.82324615 26.6416748 -4.99580383 25.65014648 C-6.24336137 17.99515425 -6.30403209 12.71429007 -2 6 C-1.28856912 4.01548229 -0.61008664 2.01797888 0 0 Z " fill="#C0AFA3" transform="translate(446,1000)"/>
<path d="M0 0 C1.53410812 2.03626363 3.05572085 4.077586 4.54296875 6.1484375 C12.19721516 16.51166899 22.44373257 22.99741431 35 26 C34.34 26.33 33.68 26.66 33 27 C32.96696777 27.84578613 32.93393555 28.69157227 32.89990234 29.56298828 C32.1657273 44.64677589 30.46094398 59.6413587 28.86126709 74.65216064 C28.47197957 78.31464123 28.0878628 81.97766419 27.703125 85.640625 C27.24997992 89.9540062 26.79434985 94.26707098 26.32794189 98.57904053 C26.1759627 99.98465745 26.02400533 101.39027674 25.87207031 102.79589844 C25.79783466 103.48233303 25.72359901 104.16876762 25.6471138 104.87600327 C25.14678421 109.53727628 24.68834548 114.20110981 24.24511719 118.86816406 C24.12292816 120.09753693 24.00073914 121.32690979 23.87484741 122.59353638 C23.64858891 124.87233185 23.43397448 127.15232893 23.23379517 129.43356323 C22.2307087 139.25711106 19.23602577 145.80551292 11.5625 152.2421875 C7.34097966 155.13804749 2.89655114 156.62284499 -2 158 C-2.70125 158.21269531 -3.4025 158.42539063 -4.125 158.64453125 C-22.60137295 163.82238577 -48.30303509 162.7361018 -66 155 C-70.60744757 151.64971815 -72.56093487 149.63439078 -73.5 144 C-73.32971178 137.44390354 -69.08585033 130.36751625 -64.859375 125.5703125 C-53.22387578 109.48594593 -64.51307398 71.28087247 -67.35424805 53.44067383 C-67.60761302 51.87812623 -67.867577 50.31662553 -68.13598633 48.7565918 C-68.80379912 44.79042961 -69.12567414 41.02157236 -69 37 C-68.4423999 36.96036133 -67.8847998 36.92072266 -67.31030273 36.87988281 C-55.45089101 35.99788856 -44.34890125 34.72243961 -33 31 C-31.88238281 30.64035156 -30.76476562 30.28070312 -29.61328125 29.91015625 C-17.74743462 25.7395569 -7.39603307 20.0118678 -1.75 8.4375 C-0.89089352 5.64540394 -0.40336919 2.89081253 0 0 Z " fill="#897665" transform="translate(714,1002)"/>
<path d="M0 0 C0.33 0 0.66 0 1 0 C1.20753906 0.96679688 1.41507812 1.93359375 1.62890625 2.9296875 C4.39590978 14.96444867 8.60197445 23.56566536 19.328125 30.47265625 C35.17684411 39.53237726 49.83432266 41.17805132 67.8125 41.25 C69.72772461 41.2809375 69.72772461 41.2809375 71.68164062 41.3125 C80.18820504 41.34713232 87.80889993 40.29603608 96 38 C94.72738059 56.0460466 93.03256726 74.01771209 91.0625 92 C90.80759911 94.3593379 90.55304142 96.71871291 90.29882812 99.078125 C89.79596632 103.73529871 89.28443482 108.39139769 88.76611328 113.046875 C88.23671183 117.80517663 87.73377281 122.56542409 87.24560547 127.328125 C86.99599806 129.67710777 86.74616905 132.026067 86.49609375 134.375 C86.38999283 135.45668457 86.28389191 136.53836914 86.17457581 137.65283203 C85.27339358 145.92826558 83.46264057 151.39904484 77 157 C60.08594341 169.90188503 35.84283243 169.26024639 15.74121094 166.71386719 C7.13809822 165.43625551 -1.10867684 163.89132316 -7.4375 157.5625 C-9.47211239 154.22573569 -10.20449799 151.54395979 -9.6875 147.640625 C-7.99018954 141.73861363 -5.60740144 137.69777419 -1.5234375 133.10546875 C11.62602827 114.93223273 -2.35527068 69.98299517 -5.640625 49.4765625 C-6.42195502 44.65019885 -7.21062195 39.82505281 -8 35 C-8.76930973 30.27923577 -9.53413737 25.55776739 -10.296875 20.8359375 C-10.55552338 19.25626694 -10.55552338 19.25626694 -10.81939697 17.64468384 C-10.97535339 16.67960907 -11.13130981 15.7145343 -11.29199219 14.72021484 C-11.42933777 13.87711761 -11.56668335 13.03402039 -11.70819092 12.16537476 C-12 10 -12 10 -12 7 C-11.30132812 6.66226563 -10.60265625 6.32453125 -9.8828125 5.9765625 C-8.97273438 5.53054688 -8.06265625 5.08453125 -7.125 4.625 C-6.22007812 4.18414063 -5.31515625 3.74328125 -4.3828125 3.2890625 C-1.90465528 2.09497301 -1.90465528 2.09497301 0 0 Z " fill="#897666" transform="translate(317,991)"/>
<path d="M0 0 C8.50583481 5.59231022 14.11423412 13.42010072 16.875 23.1875 C19.88134904 39.29491135 17.81470533 58.56505841 8.8671875 72.59765625 C8.45726562 73.16355469 8.04734375 73.72945312 7.625 74.3125 C7.04105469 75.14587891 7.04105469 75.14587891 6.4453125 75.99609375 C0.6143008 83.63738685 -7.12879062 87.26871613 -16.375 89.3125 C-28.43122839 90.67191527 -40.54315099 88.33505351 -50.50390625 81.15234375 C-53.91794159 77.79532779 -55.63908796 73.71153813 -57.375 69.3125 C-57.89900391 68.075 -57.89900391 68.075 -58.43359375 66.8125 C-64.40442556 50.95634914 -62.15736676 31.74912923 -55.86328125 16.39453125 C-51.33414677 7.01529999 -45.31468921 -1.30743539 -35.3046875 -4.9609375 C-23.74548067 -7.82762079 -10.36292622 -5.74500592 0 0 Z " fill="#242021" transform="translate(397.375,585.6875)"/>
<path d="M0 0 C6.61003003 4.84888016 9.9438072 10.86064122 12.2578125 18.65625 C12.81380425 22.57056753 12.87810841 26.3945748 12.8203125 30.34375 C12.80605225 31.9220459 12.80605225 31.9220459 12.79150391 33.53222656 C12.55650576 42.38608722 10.94766907 49.54635415 7.2578125 57.65625 C6.80019531 58.71972656 6.34257812 59.78320312 5.87109375 60.87890625 C1.47376827 70.40845269 -5.30368996 81.64035486 -15.46875 85.76171875 C-27.28241943 88.99003653 -38.76103554 86.2813623 -49.4296875 80.96875 C-58.74079658 75.64247998 -63.6185897 67.92086351 -66.9921875 57.96875 C-70.37172685 42.34979786 -65.96988564 24.52807512 -58.14453125 10.8671875 C-44.40663707 -9.8491814 -20.63318358 -13.19488856 0 0 Z " fill="#242021" transform="translate(252.7421875,546.34375)"/>
<path d="M0 0 C0.67289062 0.49242187 1.34578125 0.98484375 2.0390625 1.4921875 C3.1115625 2.2553125 4.1840625 3.0184375 5.2890625 3.8046875 C15.27005631 13.55884054 20.20400785 26.77918334 20.3684082 40.58178711 C20.36284912 41.39784424 20.35729004 42.21390137 20.3515625 43.0546875 C20.34419067 44.35515015 20.34419067 44.35515015 20.33666992 45.68188477 C20.01774466 63.51389574 15.43280689 82.05906867 3.1640625 95.5546875 C-8.16667977 106.15441414 -21.11600455 108.01902871 -35.9765625 107.734375 C-51.23242947 107.15380131 -63.86856803 101.44670574 -74.44921875 90.41015625 C-75.9609375 88.4921875 -75.9609375 88.4921875 -75.9609375 86.4921875 C-73.45493833 87.49011217 -70.9531546 88.49541011 -68.4609375 89.52734375 C-67.6359375 89.86636719 -66.8109375 90.20539063 -65.9609375 90.5546875 C-65.1359375 90.89628906 -64.3109375 91.23789062 -63.4609375 91.58984375 C-52.52159643 95.53826217 -40.37315446 94.35021314 -29.9609375 89.4921875 C-19.17827636 83.49979643 -14.60605561 72.89299181 -11.05078125 61.6015625 C-7.05501675 46.80794138 -7.18468992 30.76315573 -14.7109375 17.1796875 C-20.76234456 7.8207712 -28.64381511 4.07056227 -39.2109375 1.2421875 C-48.07650085 -0.52147697 -57.3596605 -0.26022114 -65.9609375 2.4921875 C-63.44660125 -0.38256555 -60.67038743 -1.86966279 -57.2734375 -3.5703125 C-56.27957031 -4.07691406 -55.28570312 -4.58351563 -54.26171875 -5.10546875 C-37.56507669 -12.19907171 -15.04686579 -10.11511713 0 0 Z " fill="#EFEFF0" transform="translate(422.9609375,580.5078125)"/>
<path d="M0 0 C4.42297959 3.98935414 8.04092829 8.5689992 11.58984375 13.3359375 C11.25984375 13.9959375 10.92984375 14.6559375 10.58984375 15.3359375 C9.66171875 14.4490625 8.73359375 13.5621875 7.77734375 12.6484375 C-2.47633561 3.8357029 -14.41059504 2.58512407 -27.38818359 3.16552734 C-36.07473397 3.89762251 -42.79965253 8.95372881 -48.41015625 15.3359375 C-58.26055495 29.1187088 -62.97182418 46.45410946 -61.41015625 63.3359375 C-59.55445998 73.00333724 -56.06616698 81.13775661 -48.015625 87.11328125 C-40.71396332 91.70065395 -32.61654489 95.49273742 -23.86328125 95.43359375 C-23.01894531 95.43037109 -22.17460937 95.42714844 -21.3046875 95.42382812 C-20.43199219 95.41544922 -19.55929688 95.40707031 -18.66015625 95.3984375 C-17.77199219 95.39392578 -16.88382812 95.38941406 -15.96875 95.38476562 C-13.78248296 95.3730115 -11.59635446 95.35657999 -9.41015625 95.3359375 C-20.30393602 103.93496274 -32.07832268 104.65007921 -45.41015625 103.3359375 C-55.51406715 101.93305794 -64.02777127 98.03700058 -72.41015625 92.3359375 C-73.31507813 91.73652344 -73.31507813 91.73652344 -74.23828125 91.125 C-83.00736122 84.6174196 -87.92666535 73.82262156 -89.99609375 63.37890625 C-92.63385083 43.99388019 -86.89250814 21.21115887 -75.41015625 5.3359375 C-56.18175827 -18.14489464 -23.29923835 -17.85932808 0 0 Z " fill="#EFEFF0" transform="translate(247.41015625,536.6640625)"/>
<path d="M0 0 C9.94842604 5.1003706 17.75373843 12.65218286 23.25 22.375 C25.43832266 29.24135374 24.54772647 34.99418379 21.453125 41.3359375 C19.76564059 44.19589484 17.76823342 46.22528855 15.25 48.375 C14.445625 49.07625 13.64125 49.7775 12.8125 50.5 C5.54022458 55.82117714 -0.92525328 56.53312837 -9.75 55.375 C-18.48427215 52.31014615 -27.42912185 45.73475717 -32.1875 37.6875 C-32.703125 36.594375 -33.21875 35.50125 -33.75 34.375 C-34.1625 33.59125 -34.575 32.8075 -35 32 C-36.66989993 26.15535023 -36.359537 20.09613252 -33.98828125 14.48828125 C-26.49024063 1.69194063 -14.7344198 -6.06711403 0 0 Z " fill="#EEE4DB" transform="translate(951.75,591.625)"/>
<path d="M0 0 C1.93679368 0.95775512 3.86060636 1.92331798 5.75390625 2.96484375 C16.82332722 8.91794487 27.88685512 9.52866463 40.1875 9.4375 C40.97470428 9.43645264 41.76190857 9.43540527 42.57296753 9.43432617 C55.6564119 9.39849975 68.22171343 8.18852199 81.02758789 5.3671875 C83 5 83 5 86 5 C85.57540979 12.40836717 84.77969283 17.7437884 79.8125 23.5625 C64.03485759 37.23645675 42.89095587 37.8838591 23.0078125 36.4765625 C12.32688691 35.55221248 0.47965837 34.47965837 -7.4375 26.5625 C-9.47211239 23.22573569 -10.20449799 20.54395979 -9.6875 16.640625 C-7.75597858 9.92419826 -4.60374889 5.22178641 0 0 Z " fill="#262020" transform="translate(317,1122)"/>
<path d="M0 0 C0.52207031 0.39832031 1.04414062 0.79664063 1.58203125 1.20703125 C13.6613367 9.90159261 27.19441468 10.18041924 41.625 10.1875 C43.56052734 10.20586914 43.56052734 10.20586914 45.53515625 10.22460938 C53.8814173 10.23721702 61.79910854 9.5349818 70 8 C71.58868896 7.70452271 71.58868896 7.70452271 73.20947266 7.40307617 C74.99522414 7.06514262 76.77972386 6.72048155 78.5625 6.3671875 C81.07826746 5.98820971 83.45981025 5.93649526 86 6 C85.22011353 14.0677911 84.10218594 20.34184006 78 26 C65.85431026 35.44420721 51.00611755 37.19788814 36.12670898 37.24023438 C34.09901069 37.24982727 32.07237816 37.28084804 30.04492188 37.3125 C17.41795663 37.41530511 3.69167474 36.39177513 -7 29 C-9.60466747 26.08890106 -9.93714856 24.55518774 -10.375 20.6875 C-9.49570344 12.0410838 -5.53173209 6.54714593 0 0 Z " fill="#262121" transform="translate(790,1134)"/>
<path d="M0 0 C0.60585938 0.39832031 1.21171875 0.79664063 1.8359375 1.20703125 C11.24070068 7.15373535 19.92921302 9.5800736 31 10 C32.06492676 10.04084717 32.06492676 10.04084717 33.15136719 10.08251953 C46.73907346 10.52723861 59.8210276 9.26976468 73.26318359 7.36376953 C77.49826138 6.80085553 81.74589781 6.38937424 86 6 C85.21956874 14.07342685 84.09825481 20.33370491 78 26 C61.35258545 39.15880194 35.96254756 38.80641529 15.8671875 36.50390625 C7.5874893 35.31123544 -1.93394647 33.61754125 -7.69921875 27.0703125 C-9.72116696 23.85219672 -10.21096035 20.72476868 -10 17 C-8.17336177 10.45835183 -4.24518014 5.19327037 0 0 Z " fill="#262121" transform="translate(451,1130)"/>
<path d="M0 0 C0 0.66 0 1.32 0 2 C0.70125 2.268125 1.4025 2.53625 2.125 2.8125 C5 4 5 4 7.8125 5.5 C14.92294179 8.84609025 22.23707943 9.61498779 30 10 C30.65919434 10.03399902 31.31838867 10.06799805 31.99755859 10.10302734 C46.65348679 10.75257017 60.73867911 8.74069913 75.17944336 6.3671875 C77.82609665 6.0226392 80.33516081 5.93160032 83 6 C83.455931 12.38303406 82.77296514 16.73824321 79 22 C73.27851253 28.50492766 67.25483338 31.67832811 59 34 C58.29875 34.21269531 57.5975 34.42539063 56.875 34.64453125 C38.39862705 39.82238577 12.69696491 38.7361018 -5 31 C-9.60744757 27.64971815 -11.56093487 25.63439078 -12.5 20 C-12.32911279 13.43508311 -8.15218052 6.44749852 -3.921875 1.63671875 C-2 0 -2 0 0 0 Z " fill="#262020" transform="translate(653,1126)"/>
<path d="M0 0 C2.125 0.375 2.125 0.375 4 1 C3.66993631 8.48110916 2.0032354 14.57888415 -0.9375 21.4375 C-1.33573975 22.38544434 -1.73397949 23.33338867 -2.14428711 24.31005859 C-14.45993754 53.06495665 -32.1691637 79.64655406 -57 99 C-58.12921875 99.96292969 -58.12921875 99.96292969 -59.28125 100.9453125 C-84.11749874 121.95405716 -116.28568147 133.71913621 -148 139 C-149.18851562 139.21269531 -150.37703125 139.42539062 -151.6015625 139.64453125 C-164.71973469 141.86281098 -178.03292982 142.21869386 -191.3125 142.25 C-191.99577362 142.25167175 -192.67904724 142.25334351 -193.38302612 142.25506592 C-207.07548669 142.25704732 -220.44450353 140.92066323 -234 139 C-235.64679751 138.78258132 -237.29391106 138.56753598 -238.94140625 138.35546875 C-242.29694607 137.92208398 -245.64935222 137.46997535 -249 137 C-249.38218767 135.34385343 -249.71395102 133.67542976 -250 132 C-249.67 131.67 -249.34 131.34 -249 131 C-242.65993348 131.04276605 -236.3258046 131.76888937 -230.06640625 132.73828125 C-173.75848008 141.26284527 -112.59118619 132.40874124 -66.01953125 98.12109375 C-59.94500989 93.5002792 -54.4475527 88.3329478 -49 83 C-48.27683594 82.32710937 -47.55367187 81.65421875 -46.80859375 80.9609375 C-25.75825207 60.97374439 -10.94481351 33.20442835 -3.12109375 5.54296875 C-2 2 -2 2 0 0 Z " fill="#8C7A6A" transform="translate(529,687)"/>
<path d="M0 0 C5.12676988 2.70024676 9.49396663 5.89311971 11.70703125 11.42578125 C12.70295271 17.82181021 11.91429621 22.4642548 8.12890625 27.73828125 C3.74841396 32.93710727 -0.76416113 34.93174818 -7.41796875 35.86328125 C-15.74927892 34.92264946 -23.42641248 31.50555469 -29.01953125 25.17578125 C-31.87556776 21.25092126 -32.32295278 18.35528612 -32.16796875 13.55078125 C-31.21415521 7.76135489 -28.98570212 3.03594226 -24.73046875 -1.01171875 C-16.70838613 -6.1540794 -8.09972674 -3.69114633 0 0 Z " fill="#EEE4DB" transform="translate(867.29296875,589.57421875)"/>
<path d="M0 0 C6.71623377 2.22888228 12.38518009 5.79367316 16 12 C17.22712886 16.1144909 17.30215114 18.14390511 15.875 22.1875 C13.48548688 25.77176968 10.84892639 28.0755368 7 30 C-0.29076439 31.0998998 -5.95963106 29.0585376 -12 25 C-15.51625094 21.70904661 -17.8752672 18.6215264 -18.25 13.75 C-17.90194204 8.52913063 -16.33888232 5.54174328 -12.9375 1.625 C-8.56133764 -0.79585577 -4.88829765 -0.80880396 0 0 Z " fill="#EEE4DB" transform="translate(892,658)"/>
<path d="M0 0 C2.0625 0.4375 2.0625 0.4375 4 1 C3.98428955 1.69561035 3.9685791 2.3912207 3.95239258 3.10791016 C3.88977137 6.28018971 3.85092323 9.45233885 3.8125 12.625 C3.78736328 13.71941406 3.76222656 14.81382812 3.73632812 15.94140625 C3.66835069 23.41892369 4.36416282 27.947978 9.375 33.75 C14.15616371 37.84814032 18.26731554 38.45940915 24.4375 38.3125 C30.03008806 37.63047707 33.75565727 35.24434273 37.6875 31.3125 C40.15069652 28.09963497 41.87948898 24.51051814 43.59375 20.85546875 C45 19 45 19 47.65625 18.23828125 C48.4296875 18.15964844 49.203125 18.08101562 50 18 C49.8440025 26.42386525 45.94086739 31.85948515 40.2265625 37.86328125 C34.29450792 43.27191925 28.43780218 45.51785507 20.4140625 45.21484375 C13.35265891 44.58640168 7.92392757 42.06844536 3 37 C-1.25846749 30.23902569 -3.18023684 24.21042214 -3.1875 16.25 C-3.20586914 15.21359375 -3.20586914 15.21359375 -3.22460938 14.15625 C-3.23800596 9.40492787 -2.551417 5.49853258 -1 1 C-0.67 0.67 -0.34 0.34 0 0 Z " fill="#8B7868" transform="translate(258,666)"/>
</svg>
